<svg width="186" height="28" viewBox="0 0 186 28" fill="none" xmlns="http://www.w3.org/2000/svg">
<path d="M17.6875 6.57812C17.1979 6.47396 16.7865 6.42188 16.4531 6.42188C15.4219 6.42188 14.8177 6.88021 14.6406 7.79688C15.4844 8.68229 15.9062 9.68229 15.9062 10.7969C15.9062 12.2865 15.2812 13.474 14.0312 14.3594C12.7917 15.2448 11 15.6875 8.65625 15.6875C7.82292 15.6875 7.01042 15.6094 6.21875 15.4531C5.6875 15.7656 5.42188 16.1667 5.42188 16.6562C5.42188 17.1979 5.64583 17.5573 6.09375 17.7344C6.54167 17.9115 7.61979 18.0417 9.32812 18.125C11.7552 18.25 13.4271 18.401 14.3438 18.5781C15.2604 18.7552 16.0312 19.1823 16.6562 19.8594C17.2812 20.5365 17.5938 21.3802 17.5938 22.3906C17.5938 23.8385 16.9219 25.0625 15.5781 26.0625C14.2448 27.0625 11.875 27.5625 8.46875 27.5625C5.27083 27.5625 3.11458 27.2135 2 26.5156C0.885417 25.8281 0.328125 24.9531 0.328125 23.8906C0.328125 22.4844 1.22917 21.5365 3.03125 21.0469C1.69792 20.3802 1.03125 19.4427 1.03125 18.2344C1.03125 16.724 2.08333 15.5469 4.1875 14.7031C2.32292 13.9323 1.39062 12.6458 1.39062 10.8438C1.39062 9.375 2.03125 8.18229 3.3125 7.26562C4.60417 6.34896 6.38542 5.89062 8.65625 5.89062C10.0938 5.89062 11.4844 6.11979 12.8281 6.57812C12.9219 5.68229 13.1823 4.94792 13.6094 4.375C14.0469 3.79167 14.9688 3.5 16.375 3.5C16.8333 3.5 17.2708 3.54167 17.6875 3.625V6.57812ZM8.625 8.40625C7.82292 8.40625 7.19271 8.625 6.73438 9.0625C6.28646 9.48958 6.0625 10.0573 6.0625 10.7656C6.0625 12.3698 6.92188 13.1719 8.64062 13.1719C9.47396 13.1719 10.125 12.9375 10.5938 12.4688C11.0729 12 11.3125 11.4323 11.3125 10.7656C11.3125 10.1406 11.0885 9.59375 10.6406 9.125C10.1927 8.64583 9.52083 8.40625 8.625 8.40625ZM5.51562 21.8906C5.32812 21.8906 5.08854 22.0156 4.79688 22.2656C4.51562 22.5156 4.375 22.8177 4.375 23.1719C4.375 23.8802 4.82812 24.3229 5.73438 24.5C6.64062 24.6771 7.70312 24.7656 8.92188 24.7656C10.5156 24.7656 11.6302 24.6458 12.2656 24.4062C12.9115 24.1667 13.2344 23.7812 13.2344 23.25C13.2344 22.8438 12.9635 22.5312 12.4219 22.3125C11.8906 22.0938 10.4635 21.9844 8.14062 21.9844L7.20312 22C6.63021 22 6.24479 21.9844 6.04688 21.9531C5.82812 21.9115 5.65104 21.8906 5.51562 21.8906ZM34.7019 22H30.1863C30.0404 21.375 29.9675 20.5521 29.9675 19.5312C29.1758 20.6562 28.3842 21.4062 27.5925 21.7812C26.8113 22.1458 25.9206 22.3281 24.9206 22.3281C23.4415 22.3281 22.2435 21.9271 21.3269 21.125C20.4206 20.3229 19.9675 19.2448 19.9675 17.8906C19.9675 16.901 20.2331 15.9896 20.7644 15.1562C21.2956 14.3229 22.1498 13.6719 23.3269 13.2031C24.504 12.724 26.6498 12.3698 29.7644 12.1406V11.2344C29.7644 9.70312 28.9988 8.9375 27.4675 8.9375C25.8321 8.9375 24.9206 9.70312 24.7331 11.2344L20.4363 10.8281C20.7175 9.03646 21.5665 7.76562 22.9831 7.01562C24.3998 6.26562 26.004 5.89062 27.7956 5.89062C28.8685 5.89062 29.879 6.01562 30.8269 6.26562C31.7748 6.51562 32.5144 6.89062 33.0456 7.39062C33.5769 7.89062 33.9363 8.42188 34.1238 8.98438C34.3113 9.53646 34.405 10.5052 34.405 11.8906V19.0469C34.405 20.4219 34.504 21.4062 34.7019 22ZM29.7644 14.4375C26.504 14.7604 24.8738 15.7448 24.8738 17.3906C24.8738 17.9427 25.0456 18.4219 25.3894 18.8281C25.7331 19.224 26.2227 19.4219 26.8581 19.4219C27.681 19.4219 28.3685 19.0833 28.9206 18.4062C29.4831 17.7188 29.7644 16.875 29.7644 15.875V14.4375ZM39.5444 22V0.671875H44.2006V22H39.5444ZM49.3244 22V0.671875H53.9806V22H49.3244ZM73.2762 14.8906H63.12C63.1096 15.1719 63.1044 15.4167 63.1044 15.625C63.1044 16.75 63.4012 17.599 63.995 18.1719C64.5992 18.7448 65.3179 19.0312 66.1512 19.0312C67.7033 19.0312 68.6356 18.2031 68.9481 16.5469L73.1669 16.8594C71.9898 20.5052 69.5992 22.3281 65.995 22.3281C64.4221 22.3281 63.0835 22.0156 61.9794 21.3906C60.8856 20.7552 59.9794 19.8333 59.2606 18.625C58.5523 17.4167 58.1981 15.9688 58.1981 14.2812C58.1981 11.7708 58.9117 9.74479 60.3387 8.20312C61.7762 6.66146 63.62 5.89062 65.87 5.89062C67.9012 5.89062 69.6408 6.60938 71.0887 8.04688C72.5471 9.47396 73.2762 11.7552 73.2762 14.8906ZM63.1044 12.1875H68.7137C68.5679 10.0208 67.6773 8.9375 66.0419 8.9375C64.2919 8.9375 63.3127 10.0208 63.1044 12.1875ZM82.025 22H77.5094V6.21875H81.775V9.15625C82.4313 6.96875 83.5667 5.875 85.1813 5.875C85.4104 5.875 85.6917 5.89062 86.025 5.92188V10.5156C85.0771 10.5156 84.3375 10.6615 83.8063 10.9531C83.2854 11.2448 82.8583 11.7708 82.525 12.5312C82.1917 13.2812 82.025 14.2969 82.025 15.5781V22ZM102.821 6.21875L97.8831 21.3594C97.331 23.0469 96.8571 24.2656 96.4613 25.0156C96.0758 25.776 95.5133 26.3802 94.7738 26.8281C94.0446 27.2865 93.0238 27.5156 91.7113 27.5156C91.055 27.5156 90.3102 27.4531 89.4769 27.3281V23.75C90.2998 23.8958 91.0602 23.9688 91.7581 23.9688C92.6748 23.9688 93.2894 23.7969 93.6019 23.4531C93.9144 23.1094 94.1488 22.625 94.305 22L88.5706 6.21875H93.4925L96.5238 15.6094L99.43 6.21875H102.821ZM128.663 22H124.007V13.2656C124.007 12.0365 123.97 11.2396 123.897 10.875C123.825 10.5 123.632 10.1927 123.319 9.95312C123.017 9.70312 122.595 9.57812 122.054 9.57812C121.543 9.57812 121.022 9.76042 120.491 10.125C119.96 10.4896 119.694 11.5365 119.694 13.2656V22H115.054V13.2656C115.054 12.0052 114.996 11.1927 114.882 10.8281C114.767 10.4531 114.549 10.151 114.226 9.92188C113.913 9.69271 113.512 9.57812 113.022 9.57812C112.22 9.57812 111.621 9.83333 111.226 10.3438C110.84 10.8438 110.647 11.8177 110.647 13.2656V22H106.132V6.21875H110.507V8.625C111.246 6.80208 112.726 5.89062 114.944 5.89062C116.955 5.89062 118.408 6.80208 119.304 8.625C120.179 6.80208 121.705 5.89062 123.882 5.89062C124.924 5.89062 125.819 6.10417 126.569 6.53125C127.319 6.95833 127.856 7.51562 128.179 8.20312C128.502 8.89062 128.663 10.0729 128.663 11.75V22ZM140.334 5.89062C142.74 5.89062 144.615 6.67708 145.959 8.25C147.313 9.82292 147.99 11.7917 147.99 14.1562C147.99 16.4896 147.287 18.4375 145.881 20C144.485 21.5521 142.625 22.3281 140.303 22.3281C138.053 22.3281 136.25 21.5573 134.896 20.0156C133.553 18.474 132.881 16.4948 132.881 14.0781C132.881 12.401 133.183 10.9792 133.787 9.8125C134.401 8.63542 135.24 7.6875 136.303 6.96875C137.365 6.25 138.709 5.89062 140.334 5.89062ZM140.459 8.9375C139.573 8.9375 138.907 9.28125 138.459 9.96875C138.011 10.6458 137.787 12 137.787 14.0312C137.787 15.8958 138 17.2344 138.428 18.0469C138.855 18.8594 139.521 19.2656 140.428 19.2656C141.219 19.2656 141.86 18.9219 142.349 18.2344C142.839 17.5365 143.084 16.2135 143.084 14.2656C143.084 12.1927 142.865 10.7865 142.428 10.0469C142 9.30729 141.344 8.9375 140.459 8.9375ZM156.942 6.21875V21.1406C156.942 21.974 156.931 22.7344 156.911 23.4219C156.89 24.1198 156.702 24.8229 156.348 25.5312C155.994 26.2396 155.431 26.776 154.661 27.1406C153.9 27.5156 152.963 27.7031 151.848 27.7031C151.213 27.7031 150.364 27.6146 149.301 27.4375V23.7812C149.791 23.8333 150.15 23.8594 150.379 23.8594C151.004 23.8594 151.458 23.6719 151.739 23.2969C152.03 22.9323 152.176 22.2135 152.176 21.1406V6.21875H156.942ZM156.942 0.234375V4.9375H152.176V0.234375H156.942ZM168.613 5.89062C171.019 5.89062 172.894 6.67708 174.238 8.25C175.592 9.82292 176.269 11.7917 176.269 14.1562C176.269 16.4896 175.566 18.4375 174.159 20C172.764 21.5521 170.904 22.3281 168.581 22.3281C166.331 22.3281 164.529 21.5573 163.175 20.0156C161.831 18.474 161.159 16.4948 161.159 14.0781C161.159 12.401 161.461 10.9792 162.066 9.8125C162.68 8.63542 163.519 7.6875 164.581 6.96875C165.644 6.25 166.988 5.89062 168.613 5.89062ZM168.738 8.9375C167.852 8.9375 167.185 9.28125 166.738 9.96875C166.29 10.6458 166.066 12 166.066 14.0312C166.066 15.8958 166.279 17.2344 166.706 18.0469C167.133 18.8594 167.8 19.2656 168.706 19.2656C169.498 19.2656 170.139 18.9219 170.628 18.2344C171.118 17.5365 171.363 16.2135 171.363 14.2656C171.363 12.1927 171.144 10.7865 170.706 10.0469C170.279 9.30729 169.623 8.9375 168.738 8.9375ZM185.08 22H180.252V17.1719H185.08V22Z" fill="#FCAD38"/>
</svg>
