<svg width="500" height="500" viewBox="0 0 500 500" fill="none" xmlns="http://www.w3.org/2000/svg">
<path d="M500 382.4H0V382.65H500V382.4Z" fill="#EBEBEB"/>
<path d="M237 337.8H43.91C42.3973 337.797 40.9475 337.195 39.8788 336.124C38.8102 335.054 38.21 333.603 38.21 332.09V60.66C38.2231 59.156 38.8292 57.718 39.8964 56.6582C40.9637 55.5985 42.4059 55.0026 43.91 55H237C238.514 55 239.967 55.6016 241.038 56.6724C242.108 57.7433 242.71 59.1956 242.71 60.71V332.09C242.71 333.604 242.108 335.057 241.038 336.128C239.967 337.198 238.514 337.8 237 337.8V337.8ZM43.91 55.2C42.4636 55.2026 41.0774 55.7791 40.0556 56.8027C39.0338 57.8264 38.46 59.2136 38.46 60.66V332.09C38.46 333.536 39.0338 334.924 40.0556 335.947C41.0774 336.971 42.4636 337.547 43.91 337.55H237C238.447 337.547 239.834 336.971 240.858 335.948C241.881 334.924 242.457 333.537 242.46 332.09V60.66C242.457 59.2127 241.881 57.8255 240.858 56.8021C239.834 55.7787 238.447 55.2026 237 55.2H43.91Z" fill="#EBEBEB"/>
<path d="M453.31 337.8H260.21C258.696 337.797 257.246 337.195 256.175 336.125C255.105 335.054 254.503 333.604 254.5 332.09V60.66C254.516 59.1551 255.124 57.7171 256.193 56.6576C257.262 55.5981 258.705 55.0025 260.21 55H453.31C454.812 55.0052 456.252 55.6022 457.317 56.6617C458.382 57.7212 458.987 59.1578 459 60.66V332.09C459 333.601 458.401 335.05 457.335 336.121C456.268 337.191 454.821 337.795 453.31 337.8V337.8ZM260.21 55.2C258.763 55.2026 257.375 55.7787 256.352 56.8021C255.329 57.8255 254.753 59.2127 254.75 60.66V332.09C254.753 333.537 255.329 334.924 256.352 335.948C257.375 336.971 258.763 337.547 260.21 337.55H453.31C454.757 337.547 456.145 336.971 457.168 335.948C458.191 334.924 458.767 333.537 458.77 332.09V60.66C458.767 59.2127 458.191 57.8255 457.168 56.8021C456.145 55.7787 454.757 55.2026 453.31 55.2H260.21Z" fill="#EBEBEB"/>
<path d="M449.9 391.92H418.33V392.17H449.9V391.92Z" fill="#EBEBEB"/>
<path d="M335.34 389.21H301.93V389.46H335.34V389.21Z" fill="#EBEBEB"/>
<path d="M459.02 401.21H396.59V401.46H459.02V401.21Z" fill="#EBEBEB"/>
<path d="M71.69 399.53H52.46V399.78H71.69V399.53Z" fill="#EBEBEB"/>
<path d="M110.89 399.53H80.6001V399.78H110.89V399.53Z" fill="#EBEBEB"/>
<path d="M244.14 395.31H189.58V395.56H244.14V395.31Z" fill="#EBEBEB"/>
<path d="M272.26 118.13L215.28 175.12V364.91H415.27V118.13H272.26Z" fill="white"/>
<path d="M415.27 365.45H215.27C215.127 365.45 214.989 365.393 214.888 365.292C214.787 365.191 214.73 365.053 214.73 364.91V175.12C214.73 175.049 214.744 174.979 214.772 174.914C214.799 174.848 214.839 174.789 214.89 174.74L271.89 117.74C271.992 117.641 272.128 117.584 272.27 117.58H415.27C415.341 117.58 415.411 117.594 415.477 117.621C415.542 117.648 415.602 117.688 415.652 117.738C415.702 117.788 415.742 117.848 415.769 117.913C415.796 117.979 415.81 118.049 415.81 118.12V364.91C415.81 364.981 415.796 365.051 415.769 365.117C415.742 365.182 415.702 365.242 415.652 365.292C415.602 365.342 415.542 365.382 415.477 365.409C415.411 365.436 415.341 365.45 415.27 365.45V365.45ZM215.82 364.38H414.73V118.67H272.49L215.82 175.34V364.38Z" fill="#E0E0E0"/>
<path d="M215.28 175.12L275.07 182.83L272.26 118.13L215.28 175.12Z" fill="#E6E6E6"/>
<path d="M215.28 175.12H272.26V118.13L215.28 175.12Z" fill="white"/>
<path d="M272.26 175.65H215.26C215.154 175.651 215.049 175.619 214.96 175.561C214.871 175.502 214.802 175.418 214.76 175.32C214.719 175.223 214.708 175.115 214.73 175.011C214.751 174.908 214.804 174.813 214.88 174.74L271.88 117.74C271.957 117.666 272.053 117.615 272.158 117.594C272.262 117.573 272.371 117.582 272.47 117.62C272.568 117.663 272.651 117.732 272.709 117.821C272.768 117.91 272.799 118.014 272.8 118.12V175.12C272.798 175.262 272.74 175.396 272.639 175.495C272.538 175.595 272.402 175.65 272.26 175.65V175.65ZM216.58 174.58H271.73V119.43L216.58 174.58Z" fill="#E0E0E0"/>
<path d="M326.84 257.19L360.84 223.19C361.6 222.43 362.202 221.528 362.613 220.536C363.025 219.543 363.236 218.479 363.236 217.405C363.236 216.331 363.025 215.267 362.613 214.274C362.202 213.282 361.6 212.38 360.84 211.62C360.08 210.86 359.178 210.258 358.186 209.847C357.193 209.435 356.129 209.224 355.055 209.224C353.981 209.224 352.917 209.435 351.924 209.847C350.932 210.258 350.03 210.86 349.27 211.62L315.27 245.62L281.27 211.62C279.736 210.086 277.655 209.224 275.485 209.224C273.315 209.224 271.234 210.086 269.7 211.62C268.166 213.154 267.304 215.235 267.304 217.405C267.304 219.575 268.166 221.656 269.7 223.19L303.7 257.19L269.7 291.19C268.166 292.724 267.304 294.805 267.304 296.975C267.304 299.145 268.166 301.226 269.7 302.76C271.234 304.294 273.315 305.156 275.485 305.156C277.655 305.156 279.736 304.294 281.27 302.76L315.27 268.76L349.27 302.76C350.804 304.294 352.885 305.156 355.055 305.156C357.225 305.156 359.306 304.294 360.84 302.76C362.374 301.226 363.236 299.145 363.236 296.975C363.236 294.805 362.374 292.724 360.84 291.19L326.84 257.19Z" fill="#F0F0F0"/>
<path d="M223 229C221.082 230.916 218.481 231.993 215.77 231.993C213.059 231.993 210.458 230.916 208.54 229L175.73 196.18L190.19 181.72L223 214.58C224.904 216.497 225.973 219.088 225.973 221.79C225.973 224.492 224.904 227.083 223 229V229Z" fill="#F0F0F0"/>
<path d="M175.725 196.244L190.185 181.783L191.522 183.12C192.908 184.506 193.686 186.385 193.686 188.345C193.686 190.305 192.908 192.185 191.522 193.571L187.513 197.58C186.127 198.966 184.247 199.745 182.287 199.745C180.327 199.745 178.447 198.966 177.062 197.58L175.725 196.244V196.244Z" fill="#E0E0E0"/>
<path d="M84.71 90.71C74.7876 100.642 68.0327 113.294 65.299 127.064C62.5652 140.835 63.9755 155.107 69.3514 168.076C74.7273 181.046 83.8276 192.13 95.502 199.928C107.176 207.727 120.901 211.889 134.94 211.889C148.979 211.889 162.704 207.727 174.378 199.928C186.052 192.13 195.153 181.046 200.529 168.076C205.904 155.107 207.315 140.835 204.581 127.064C201.847 113.294 195.092 100.642 185.17 90.71C178.576 84.1094 170.746 78.8732 162.127 75.3006C153.508 71.728 144.27 69.8892 134.94 69.8892C125.61 69.8892 116.372 71.728 107.753 75.3006C99.134 78.8732 91.3039 84.1094 84.71 90.71V90.71ZM181.07 187.07C171.947 196.192 160.324 202.405 147.671 204.922C135.018 207.439 121.902 206.147 109.983 201.21C98.064 196.272 87.8765 187.912 80.709 177.185C73.5415 166.458 69.7158 153.846 69.7158 140.945C69.7158 128.044 73.5415 115.432 80.709 104.705C87.8765 93.9783 98.064 85.6176 109.983 80.6805C121.902 75.7433 135.018 74.4515 147.671 76.9683C160.324 79.4851 171.947 85.6975 181.07 94.82C187.127 100.877 191.932 108.068 195.21 115.982C198.489 123.896 200.176 132.379 200.176 140.945C200.176 149.511 198.489 157.994 195.21 165.908C191.932 173.822 187.127 181.013 181.07 187.07V187.07Z" fill="#E0E0E0"/>
<path d="M172.26 180.65C171.79 180.649 171.331 180.509 170.941 180.247C170.55 179.985 170.246 179.614 170.066 179.18C169.887 178.746 169.84 178.268 169.931 177.807C170.022 177.346 170.248 176.923 170.58 176.59C180.016 167.127 185.315 154.309 185.315 140.945C185.315 127.581 180.016 114.763 170.58 105.3C170.337 105.085 170.141 104.822 170.004 104.528C169.867 104.234 169.791 103.915 169.782 103.591C169.772 103.267 169.829 102.944 169.949 102.643C170.068 102.341 170.249 102.067 170.478 101.838C170.707 101.609 170.981 101.429 171.282 101.309C171.584 101.189 171.907 101.132 172.231 101.142C172.555 101.152 172.874 101.227 173.168 101.364C173.462 101.502 173.724 101.698 173.94 101.94C184.267 112.292 190.067 126.317 190.067 140.94C190.067 155.562 184.267 169.588 173.94 179.94C173.72 180.163 173.459 180.34 173.17 180.462C172.882 180.584 172.573 180.648 172.26 180.65V180.65Z" fill="#E0E0E0"/>
<path d="M83.5801 155.53C83.045 155.531 82.5255 155.35 82.1061 155.018C81.6867 154.685 81.392 154.221 81.2701 153.7C79.5404 146.375 79.3223 138.774 80.629 131.362C81.9357 123.95 84.7398 116.882 88.8701 110.59C89.2175 110.06 89.7614 109.689 90.3822 109.559C91.0029 109.43 91.6497 109.553 92.1801 109.9C92.7105 110.247 93.0812 110.791 93.2106 111.412C93.34 112.033 93.2175 112.68 92.8701 113.21C89.0885 118.958 86.5176 125.415 85.3141 132.189C84.1106 138.963 84.2998 145.912 85.8701 152.61C85.9443 152.913 85.9576 153.229 85.9091 153.537C85.8606 153.846 85.7513 154.142 85.5876 154.408C85.4239 154.674 85.209 154.905 84.9554 155.087C84.7017 155.269 84.4144 155.4 84.1101 155.47C83.9359 155.508 83.7583 155.528 83.5801 155.53V155.53Z" fill="#E0E0E0"/>
<path d="M97.6201 180.65C96.9894 180.648 96.3852 180.397 95.9401 179.95C91.6564 175.683 88.1084 170.736 85.4401 165.31C85.3022 165.03 85.2207 164.726 85.2004 164.415C85.18 164.104 85.2212 163.792 85.3215 163.496C85.4217 163.201 85.5792 162.928 85.7849 162.694C85.9905 162.46 86.2403 162.268 86.5201 162.13C86.7998 161.992 87.1039 161.911 87.4151 161.89C87.7263 161.87 88.0384 161.911 88.3337 162.011C88.629 162.112 88.9017 162.269 89.1361 162.475C89.3705 162.68 89.5622 162.93 89.7001 163.21C92.1466 168.165 95.3897 172.685 99.3001 176.59C99.7446 177.036 99.9942 177.64 99.9942 178.27C99.9942 178.9 99.7446 179.504 99.3001 179.95C98.8531 180.394 98.25 180.645 97.6201 180.65V180.65Z" fill="#E0E0E0"/>
<path d="M211.033 320.405L220.381 329.753L198.673 351.461C197.562 352.571 196.057 353.195 194.487 353.195C192.917 353.195 191.411 352.571 190.301 351.461L189.318 350.478C188.207 349.368 187.584 347.862 187.584 346.292C187.584 344.722 188.207 343.216 189.318 342.106L211.026 320.398L211.033 320.405Z" fill="#F0F0F0"/>
<path d="M211.047 320.425L220.381 329.759L219.935 330.204C218.928 331.211 217.562 331.777 216.138 331.777C214.714 331.777 213.348 331.212 212.341 330.204L210.587 328.451C209.58 327.444 209.014 326.078 209.014 324.654C209.014 323.229 209.58 321.864 210.587 320.856L211.033 320.411L211.047 320.425Z" fill="#E0E0E0"/>
<path d="M284.35 269.7L262.45 291.59C260.019 294.195 258.695 297.642 258.758 301.205C258.821 304.767 260.265 308.166 262.785 310.684C265.306 313.202 268.706 314.643 272.269 314.702C275.831 314.761 279.277 313.433 281.88 311L290.74 302.15C292.605 290.916 290.335 279.388 284.35 269.7Z" fill="#F0F0F0"/>
<path d="M292.6 290.82C291.973 281.755 288.671 273.079 283.113 265.89C277.555 258.702 269.99 253.323 261.374 250.434C252.758 247.545 243.48 247.277 234.711 249.662C225.943 252.047 218.079 256.979 212.114 263.833C206.149 270.688 202.351 279.158 201.2 288.172C200.049 297.186 201.597 306.338 205.648 314.472C209.699 322.606 216.071 329.356 223.959 333.868C231.847 338.38 240.895 340.451 249.96 339.82C262.111 338.974 273.429 333.337 281.425 324.148C289.421 314.96 293.441 302.972 292.6 290.82ZM204.69 296.94C204.111 288.617 206.013 280.31 210.155 273.068C214.297 265.827 220.494 259.976 227.961 256.256C235.429 252.536 243.832 251.115 252.107 252.171C260.383 253.227 268.16 256.713 274.454 262.189C280.748 267.665 285.277 274.884 287.468 282.934C289.659 290.984 289.413 299.503 286.763 307.413C284.112 315.324 279.175 322.27 272.576 327.375C265.977 332.479 258.013 335.512 249.69 336.09C238.531 336.865 227.522 333.176 219.083 325.834C210.644 318.492 205.467 308.099 204.69 296.94Z" fill="#E0E0E0"/>
<path d="M223.38 320.91C219.841 317.842 216.942 314.106 214.85 309.915C212.759 305.725 211.515 301.162 211.19 296.49C211.167 296.283 211.186 296.074 211.246 295.875C211.306 295.676 211.405 295.492 211.539 295.332C211.672 295.173 211.836 295.042 212.021 294.947C212.206 294.853 212.408 294.797 212.616 294.783C212.823 294.769 213.031 294.797 213.227 294.865C213.423 294.933 213.604 295.041 213.757 295.18C213.911 295.32 214.035 295.49 214.121 295.679C214.208 295.868 214.255 296.072 214.26 296.28C214.873 304.891 218.873 312.909 225.383 318.579C231.894 324.248 240.386 327.107 249 326.53C249.406 326.502 249.806 326.637 250.113 326.904C250.419 327.171 250.607 327.549 250.635 327.955C250.663 328.361 250.529 328.761 250.261 329.068C249.994 329.374 249.616 329.562 249.21 329.59C244.545 329.914 239.862 329.314 235.43 327.825C230.997 326.335 226.903 323.985 223.38 320.91V320.91Z" fill="#E0E0E0"/>
<path d="M278.64 286C278.412 285.803 278.248 285.541 278.17 285.25C276.966 280.97 274.902 276.98 272.105 273.524C269.308 270.069 265.835 267.219 261.9 265.15C261.556 264.952 261.301 264.629 261.19 264.247C261.078 263.866 261.118 263.457 261.302 263.104C261.485 262.752 261.797 262.484 262.173 262.357C262.549 262.229 262.96 262.252 263.32 262.42C267.627 264.685 271.428 267.804 274.49 271.586C277.552 275.369 279.811 279.735 281.13 284.42C281.185 284.614 281.2 284.818 281.176 285.018C281.152 285.218 281.088 285.412 280.988 285.588C280.889 285.763 280.756 285.918 280.596 286.042C280.437 286.166 280.255 286.257 280.06 286.31C279.816 286.377 279.559 286.384 279.312 286.33C279.064 286.276 278.834 286.163 278.64 286V286Z" fill="#E0E0E0"/>
<path d="M243.39 261.13C243.084 260.858 242.898 260.478 242.87 260.07C242.842 259.665 242.976 259.265 243.242 258.958C243.508 258.65 243.885 258.461 244.29 258.43C248.19 258.159 252.108 258.527 255.89 259.52C256.087 259.572 256.272 259.662 256.434 259.785C256.596 259.909 256.732 260.063 256.835 260.239C256.937 260.415 257.004 260.609 257.032 260.811C257.059 261.013 257.047 261.218 256.995 261.415C256.943 261.612 256.853 261.797 256.729 261.959C256.606 262.121 256.452 262.257 256.276 262.36C256.1 262.463 255.906 262.53 255.704 262.557C255.502 262.584 255.297 262.572 255.1 262.52C251.649 261.607 248.071 261.269 244.51 261.52C244.1 261.54 243.698 261.4 243.39 261.13V261.13Z" fill="#E0E0E0"/>
<path d="M250 427.56C357.082 427.56 443.89 422.492 443.89 416.24C443.89 409.988 357.082 404.92 250 404.92C142.917 404.92 56.1099 409.988 56.1099 416.24C56.1099 422.492 142.917 427.56 250 427.56Z" fill="#F5F5F5"/>
<path d="M137.82 145.88C129.76 153.99 143.46 166.58 134.41 172.36C141.8 176.07 167.7 180.78 174.41 166.19C169.52 162.39 172.92 153.05 168.41 144.08C161.66 130.78 129.76 136.67 137.82 145.88Z" fill="#263238"/>
<path d="M138.55 145.67C136.04 145.25 127.55 149.47 133.87 160.8C138.96 169.96 134.72 170.61 134.72 170.61C134.72 170.61 139.72 170.75 136.72 163.94C133.54 156.67 132.05 149.13 138.55 145.67Z" fill="#263238"/>
<path d="M198 217.61C197.691 217.044 197.172 216.622 196.554 216.435C195.937 216.248 195.271 216.311 194.7 216.61L194.11 216.92C193.92 217.02 193.56 217.26 193.27 217.43C192.98 217.6 192.64 217.79 192.32 217.95C191.689 218.267 191.038 218.541 190.37 218.77C189.134 219.218 187.834 219.464 186.52 219.5C185.313 219.514 184.112 219.321 182.97 218.93C182.244 218.661 181.545 218.326 180.88 217.93C180.02 216.03 179.2 214.11 178.5 212.13C177.65 209.82 176.9 207.46 176.24 205.07C175.58 202.68 175 200.26 174.52 197.83C174.27 196.62 174.05 195.4 173.85 194.19L173.58 192.38C173.49 191.8 173.41 191.14 173.36 190.68V190.48C173.227 189.154 172.573 187.935 171.542 187.091C170.51 186.247 169.186 185.847 167.86 185.98C166.534 186.113 165.315 186.767 164.471 187.798C163.627 188.83 163.227 190.154 163.36 191.48C163.43 192.33 163.49 192.98 163.58 193.69C163.67 194.4 163.77 195.08 163.87 195.77C164.09 197.15 164.34 198.51 164.62 199.87C165.176 202.572 165.877 205.243 166.72 207.87C167.11 209.19 167.59 210.49 168.04 211.8C168.49 213.11 169.04 214.39 169.61 215.66C170.701 218.226 171.94 220.727 173.32 223.15L173.44 223.37C173.799 224.021 174.337 224.555 174.99 224.91C176.88 225.94 178.922 226.663 181.04 227.05C183.215 227.434 185.444 227.387 187.6 226.91C190.644 226.204 193.439 224.687 195.69 222.52C196.06 222.18 196.41 221.83 196.69 221.46C196.97 221.09 197.31 220.74 197.69 220.22C197.983 219.859 198.168 219.422 198.223 218.96C198.278 218.498 198.2 218.03 198 217.61Z" fill="#FF8B7B"/>
<path d="M204.65 208.25H204.36C203.403 208.23 202.454 208.43 201.587 208.836C200.72 209.242 199.958 209.842 199.36 210.59L194.53 216.65V220.79C198.41 222.33 203.33 218.18 203.33 218.18L205.82 217.55C206.658 217.341 207.389 216.828 207.871 216.112C208.353 215.395 208.552 214.525 208.43 213.67L208.07 211.24C207.953 210.415 207.543 209.659 206.915 209.11C206.288 208.561 205.484 208.256 204.65 208.25V208.25Z" fill="#FF8B7B"/>
<path d="M173.23 184.88C176.46 188.2 176.66 198.11 176.66 198.11L163.74 208.51C163.74 208.51 158.43 193.81 161.37 188.62C163.86 184.22 169.11 180.65 173.23 184.88Z" fill="#F4D19B"/>
<g opacity="0.2">
<path d="M173.23 184.88C176.46 188.2 176.66 198.11 176.66 198.11L163.74 208.51C163.74 208.51 158.43 193.81 161.37 188.62C163.86 184.22 169.11 180.65 173.23 184.88Z" fill="white"/>
</g>
<path d="M151.85 407.67L158.99 408.45L159.97 389.05L152.83 388.26L151.85 407.67Z" fill="#FF8B7B"/>
<path d="M160.16 403.79H151.77C151.601 403.784 151.436 403.845 151.311 403.959C151.186 404.073 151.11 404.231 151.1 404.4L150.54 412.33C150.54 412.745 150.702 413.143 150.992 413.44C151.281 413.737 151.675 413.91 152.09 413.92C155.63 413.92 155.67 413.92 160.09 413.92H172C175.66 413.92 175.67 410.21 174.09 409.87C166.98 408.37 164.21 406.29 161.7 404.31C161.259 403.97 160.717 403.787 160.16 403.79V403.79Z" fill="#263238"/>
<path opacity="0.2" d="M159.97 389.06L159.46 399.06H152.28L152.83 388.27L159.97 389.06Z" fill="black"/>
<path d="M163.82 234.27C163.82 234.27 170 286 170 309C165.13 341 161 397.16 161 397.16L151.12 396.9C151.12 396.9 146.63 335.74 150.79 309.33C145.46 285.67 138.88 231.07 138.88 231.07L163.82 234.27Z" fill="#263238"/>
<path opacity="0.2" d="M144.77 248.67C143.593 249.188 142.45 249.783 141.35 250.45C142.71 260.66 144.5 273.51 146.4 285.37C149.64 275.61 147.89 254.15 144.77 248.67Z" fill="black"/>
<path d="M74.5303 389.66L80.4203 393.77L90.5803 377.21L84.6903 373.1L74.5303 389.66Z" fill="#FF8B7B"/>
<path d="M81.9101 391.6L76.9101 384.87C76.8149 384.732 76.6694 384.637 76.5049 384.605C76.3403 384.573 76.1699 384.607 76.0301 384.7L69.3301 389C68.9959 389.246 68.7718 389.614 68.7063 390.023C68.6408 390.433 68.7392 390.852 68.9801 391.19C71.0701 394.04 71.1101 394.06 73.7401 397.6C75.3701 399.77 78.6201 404.14 80.8601 407.15C83.1001 410.16 86.0301 407.88 85.3501 406.4C82.3501 399.81 82.3501 396.4 82.4101 393.16C82.4203 392.599 82.2445 392.051 81.9101 391.6V391.6Z" fill="#263238"/>
<path opacity="0.2" d="M90.5703 377.21L85.3403 385.75L79.0303 382.31L84.6903 373.1L90.5703 377.21Z" fill="black"/>
<path d="M110.66 396.6C105.55 396.6 94.91 396.6 94.73 389.08C94.59 383.18 101.89 380.73 108.19 380.43C108.888 380.396 109.586 380.501 110.244 380.737C110.901 380.973 111.506 381.336 112.023 381.806C112.541 382.276 112.96 382.843 113.258 383.475C113.556 384.107 113.727 384.792 113.76 385.49V385.89C120.9 385.55 125.52 383.99 127.21 381.33C131.02 375.33 123.72 359.84 116.67 344.87C108.37 327.26 98.97 307.31 98.79 288.2C98.7834 287.501 98.9145 286.808 99.1758 286.16C99.4371 285.512 99.8234 284.922 100.313 284.423C100.802 283.925 101.385 283.527 102.028 283.254C102.671 282.981 103.361 282.836 104.06 282.83V282.83C105.462 282.832 106.806 283.387 107.801 284.373C108.797 285.36 109.364 286.699 109.38 288.1C109.54 304.88 118.38 323.71 126.24 340.33C135.24 359.51 143.09 376.08 136.14 387.03C132.11 393.47 123.76 396.6 110.66 396.6Z" fill="#F4D19B"/>
<path d="M155.91 233.25C155.91 233.25 138.85 292.37 130.52 313.81C114.38 341.87 87.6003 384.81 87.6003 384.81L79.0503 379.81C79.0503 379.81 99.0503 330.21 112.5 307.11C116.11 283.11 129.76 229.85 129.76 229.85L155.91 233.25Z" fill="#263238"/>
<path d="M83.4502 396.43C83.7895 396.992 84.3123 397.419 84.9302 397.64C85.1111 397.683 85.3005 397.676 85.4771 397.617C85.6538 397.559 85.8107 397.453 85.9302 397.31C86.0133 397.234 86.0768 397.138 86.1151 397.032C86.1534 396.926 86.1654 396.812 86.1502 396.7C86.0302 395.5 82.9302 393.94 82.3102 393.64C82.274 393.625 82.2338 393.624 82.1969 393.637C82.1601 393.65 82.1292 393.676 82.1102 393.71C82.0861 393.747 82.0732 393.791 82.0732 393.835C82.0732 393.879 82.0861 393.923 82.1102 393.96C82.4774 394.824 82.9261 395.651 83.4502 396.43V396.43ZM85.5802 396.43C85.6682 396.54 85.7267 396.671 85.7502 396.81C85.755 396.849 85.7502 396.888 85.7363 396.925C85.7223 396.962 85.6996 396.994 85.6702 397.02C85.5895 397.112 85.4859 397.181 85.3699 397.219C85.254 397.258 85.1298 397.265 85.0102 397.24C84.3502 397.11 83.4802 396.04 82.6402 394.35C83.7293 394.857 84.7236 395.547 85.5802 396.39V396.43Z" fill="#F4D19B"/>
<path d="M82.0602 394L82.1202 394.05C83.1202 394.6 85.7202 395.05 86.2902 394.22C86.3859 394.069 86.4324 393.891 86.4235 393.712C86.4145 393.533 86.3505 393.361 86.2402 393.22C85.2402 391.45 82.2402 393.53 82.1102 393.62C82.0804 393.644 82.0567 393.674 82.041 393.709C82.0254 393.744 82.0182 393.782 82.0202 393.82C82.0162 393.883 82.0301 393.945 82.0602 394ZM85.8602 393.42C85.8894 393.455 85.9161 393.492 85.9402 393.53C86.0502 393.72 86.0702 393.86 86.0102 393.94C85.6802 394.42 83.7602 394.25 82.6402 393.81C83.3902 393.36 85.1402 392.45 85.8602 393.42Z" fill="#F4D19B"/>
<path d="M165 405.44C165.656 405.5 166.312 405.334 166.86 404.97C166.999 404.848 167.102 404.69 167.157 404.514C167.211 404.337 167.216 404.149 167.17 403.97C167.156 403.857 167.116 403.749 167.054 403.653C166.991 403.558 166.908 403.478 166.81 403.42C165.81 402.81 162.68 404.36 162.07 404.68C162.036 404.699 162.009 404.729 161.995 404.766C161.98 404.802 161.978 404.843 161.99 404.88C162.006 404.922 162.031 404.959 162.064 404.989C162.097 405.018 162.137 405.039 162.18 405.05C163.105 405.276 164.049 405.407 165 405.44V405.44ZM166.24 403.71C166.383 403.701 166.525 403.732 166.65 403.8C166.7 403.8 166.75 403.87 166.77 403.99C166.796 404.11 166.79 404.234 166.751 404.35C166.712 404.466 166.643 404.57 166.55 404.65C166.06 405.1 164.68 405.16 162.82 404.83C163.871 404.267 165.011 403.888 166.19 403.71H166.24Z" fill="#F4D19B"/>
<path d="M162.18 405.1H162.25C163.25 404.64 165.2 402.81 164.88 401.86C164.814 401.703 164.702 401.569 164.56 401.475C164.418 401.38 164.251 401.33 164.08 401.33C162.08 401.1 161.94 404.72 161.93 404.87C161.93 404.91 161.941 404.949 161.96 404.984C161.979 405.019 162.007 405.048 162.04 405.07C162.083 405.094 162.132 405.104 162.18 405.1V405.1ZM163.98 401.7H164.12C164.33 401.7 164.46 401.79 164.49 401.89C164.68 402.44 163.4 403.89 162.37 404.52C162.46 403.65 162.78 401.7 164 401.7H163.98Z" fill="#F4D19B"/>
<path d="M129.76 229.9L163.82 234.26C171.5 208.4 174.03 195.91 174.71 189.9C174.89 188.389 174.537 186.863 173.712 185.585C172.887 184.307 171.641 183.358 170.19 182.9C168.19 182.26 165.61 181.5 163.05 180.9C162.18 180.67 161.29 180.46 160.42 180.26C155.321 179.225 150.155 178.557 144.96 178.26C144.19 178.19 143.43 178.15 142.66 178.11C141.15 178.03 139.66 178.01 138.3 178.01C137.28 178.009 136.27 178.22 135.335 178.631C134.401 179.041 133.562 179.642 132.872 180.395C132.183 181.147 131.657 182.035 131.33 183.002C131.002 183.969 130.88 184.993 130.97 186.01C131.24 189.01 131.45 191.8 131.61 194.36C131.99 200.36 132.11 205.16 132.02 209.36C131.816 216.256 131.06 223.125 129.76 229.9V229.9Z" fill="#F4D19B"/>
<g opacity="0.3">
<path d="M129.76 229.9L163.82 234.26C171.5 208.4 174.03 195.91 174.71 189.9C174.89 188.389 174.537 186.863 173.712 185.585C172.887 184.307 171.641 183.358 170.19 182.9C168.19 182.26 165.61 181.5 163.05 180.9C162.18 180.67 161.29 180.46 160.42 180.26C155.321 179.225 150.155 178.557 144.96 178.26C144.19 178.19 143.43 178.15 142.66 178.11C141.15 178.03 139.66 178.01 138.3 178.01C137.28 178.009 136.27 178.22 135.335 178.631C134.401 179.041 133.562 179.642 132.872 180.395C132.183 181.147 131.657 182.035 131.33 183.002C131.002 183.969 130.88 184.993 130.97 186.01C131.24 189.01 131.45 191.8 131.61 194.36C131.99 200.36 132.11 205.16 132.02 209.36C131.816 216.256 131.06 223.125 129.76 229.9V229.9Z" fill="white"/>
</g>
<path opacity="0.3" d="M132 209.32C136.5 203.5 138.13 196.84 136.67 193.17L131.59 194.31C132 200.29 132.11 205.11 132 209.32Z" fill="#F4D19B"/>
<path d="M163.05 180.84C162.17 180.61 161.29 180.4 160.42 180.2C155.317 179.17 150.147 178.502 144.95 178.2C144.18 178.14 143.42 178.1 142.66 178.06L141.33 178L142.33 179.75C142.47 179.99 145.87 185.55 154.33 191.53L156.14 192.79L157.88 191.46C159.556 190.258 160.925 188.678 161.877 186.849C162.829 185.02 163.337 182.992 163.36 180.93L163.05 180.84Z" fill="white"/>
<path d="M148.71 167.92C148.39 172.13 147.4 176.42 144.95 178.22C144.95 178.22 148.07 183.41 156.15 189.08C161.21 185.21 160.42 180.2 160.42 180.2C155.04 178.2 155.42 174.47 157.69 168.52L153.49 166.26C153.128 165.861 152.656 165.577 152.134 165.443C151.611 165.31 151.061 165.333 150.552 165.51C150.042 165.687 149.596 166.01 149.269 166.438C148.941 166.867 148.747 167.382 148.71 167.92V167.92Z" fill="#FF8B7B"/>
<path opacity="0.2" d="M153.49 166.26C153.15 165.884 152.712 165.609 152.226 165.467C151.739 165.324 151.223 165.318 150.733 165.451C150.244 165.583 149.8 165.849 149.452 166.217C149.104 166.586 148.865 167.044 148.76 167.54C150.356 170.757 152.929 173.386 156.11 175.05C156.224 172.795 156.757 170.58 157.68 168.52L153.49 166.26Z" fill="black"/>
<path d="M142.17 154.72C144.26 162.85 144.97 166.33 149.94 169.72C157.41 174.86 166.94 170.52 167.31 161.94C167.66 154.21 164.19 142.21 155.51 140.49C153.594 140.098 151.61 140.204 149.746 140.797C147.882 141.39 146.201 142.45 144.864 143.877C143.526 145.304 142.576 147.05 142.105 148.948C141.633 150.846 141.656 152.833 142.17 154.72V154.72Z" fill="#FF8B7B"/>
<path d="M162.86 142.17C157.964 146.523 152.155 149.724 145.86 151.54C145.86 151.54 152.07 164.75 140.45 161.42C137.08 150.17 140.45 144.33 143.45 141.58C152.69 138.58 159.19 137.58 162.86 142.17Z" fill="#263238"/>
<path d="M141.78 162.73C142.461 164.203 143.698 165.346 145.22 165.91C147.22 166.63 148.41 164.91 147.98 162.91C147.59 161.12 146.07 158.58 143.98 158.71C143.528 158.749 143.092 158.898 142.712 159.146C142.332 159.394 142.019 159.732 141.802 160.13C141.584 160.528 141.468 160.974 141.464 161.427C141.46 161.881 141.569 162.328 141.78 162.73V162.73Z" fill="#FF8B7B"/>
<path d="M129.51 227.84L127.58 230.69C127.43 230.91 127.68 231.19 128.07 231.24L163.79 235.82C164.1 235.82 164.37 235.74 164.42 235.55L165.12 232.55C165.12 232.34 164.92 232.13 164.59 232.08L130.09 227.66C129.986 227.636 129.878 227.639 129.776 227.671C129.674 227.703 129.582 227.761 129.51 227.84V227.84Z" fill="#F4D19B"/>
<path d="M133.64 232.29L132.72 232.17C132.54 232.17 132.41 232.03 132.44 231.92L133.38 228.01C133.416 227.944 133.473 227.892 133.542 227.863C133.611 227.834 133.688 227.829 133.76 227.85L134.69 227.97C134.87 227.97 135 228.1 134.97 228.22L134.03 232.12C134 232.24 133.83 232.31 133.64 232.29Z" fill="#263238"/>
<path d="M161.15 235.81L160.23 235.7C160.05 235.7 159.92 235.56 159.95 235.44L160.89 231.54C160.89 231.43 161.09 231.35 161.27 231.37L162.2 231.49C162.38 231.49 162.51 231.63 162.48 231.74L161.54 235.65C161.51 235.76 161.34 235.84 161.15 235.81Z" fill="#263238"/>
<path d="M147.4 234.05L146.48 233.93C146.29 233.93 146.16 233.8 146.19 233.68L147.13 229.78C147.13 229.66 147.33 229.59 147.52 229.61L148.44 229.73C148.62 229.73 148.75 229.87 148.73 229.98L147.78 233.89C147.76 234 147.58 234.07 147.4 234.05Z" fill="#263238"/>
<path d="M156.1 154.37C156.22 155.04 156.68 155.52 157.1 155.43C157.52 155.34 157.79 154.74 157.66 154.07C157.53 153.4 157.07 152.92 156.66 153.01C156.25 153.1 156 153.7 156.1 154.37Z" fill="#263238"/>
<path d="M163.66 152.92C163.79 153.59 164.25 154.06 164.66 153.98C165.07 153.9 165.35 153.28 165.22 152.61C165.09 151.94 164.63 151.47 164.22 151.55C163.81 151.63 163.54 152.25 163.66 152.92Z" fill="#263238"/>
<path d="M164 151.63L165.52 150.85C165.52 150.85 165 152.27 164 151.63Z" fill="#263238"/>
<path d="M161.66 154.42C162.554 155.829 163.634 157.11 164.87 158.23C164.577 158.541 164.219 158.784 163.822 158.941C163.424 159.099 162.997 159.166 162.57 159.14L161.66 154.42Z" fill="#FF5652"/>
<path d="M156.94 161.84C156.91 161.875 156.893 161.919 156.892 161.965C156.89 162.012 156.905 162.057 156.933 162.093C156.962 162.13 157.002 162.155 157.047 162.166C157.092 162.176 157.139 162.17 157.18 162.15C157.936 161.765 158.772 161.564 159.62 161.564C160.468 161.564 161.305 161.765 162.06 162.15C162.105 162.176 162.159 162.183 162.209 162.17C162.26 162.157 162.303 162.125 162.33 162.08C162.358 162.034 162.366 161.98 162.355 161.928C162.344 161.876 162.314 161.83 162.27 161.8C161.455 161.382 160.552 161.164 159.635 161.164C158.719 161.164 157.816 161.382 157 161.8C157 161.8 157 161.82 156.94 161.84Z" fill="#263238"/>
<path d="M153.49 152.31C153.552 152.272 153.601 152.216 153.63 152.15C153.839 151.694 154.152 151.294 154.545 150.983C154.938 150.672 155.399 150.458 155.89 150.36C155.943 150.354 155.994 150.337 156.04 150.311C156.086 150.285 156.127 150.25 156.16 150.208C156.192 150.166 156.216 150.118 156.23 150.067C156.244 150.016 156.247 149.963 156.24 149.91C156.235 149.858 156.22 149.807 156.195 149.761C156.17 149.715 156.136 149.674 156.095 149.641C156.054 149.609 156.006 149.585 155.956 149.571C155.905 149.557 155.852 149.553 155.8 149.56C155.175 149.677 154.587 149.941 154.084 150.33C153.582 150.72 153.179 151.224 152.91 151.8C152.871 151.879 152.86 151.968 152.877 152.055C152.894 152.141 152.939 152.219 153.005 152.277C153.071 152.335 153.154 152.37 153.242 152.376C153.33 152.382 153.417 152.359 153.49 152.31V152.31Z" fill="#263238"/>
<path d="M165.91 147.24L165.96 147.19C165.991 147.147 166.012 147.098 166.024 147.046C166.035 146.995 166.037 146.941 166.027 146.889C166.018 146.837 165.998 146.787 165.97 146.743C165.941 146.698 165.904 146.66 165.86 146.63C165.343 146.258 164.745 146.016 164.116 145.922C163.486 145.828 162.843 145.885 162.24 146.09C162.144 146.132 162.067 146.209 162.027 146.306C161.986 146.403 161.983 146.512 162.02 146.61C162.06 146.708 162.137 146.786 162.235 146.827C162.332 146.869 162.442 146.87 162.54 146.83C163.019 146.673 163.529 146.633 164.026 146.713C164.524 146.793 164.995 146.991 165.4 147.29C165.477 147.345 165.571 147.37 165.665 147.361C165.758 147.351 165.846 147.309 165.91 147.24V147.24Z" fill="#263238"/>
<path d="M156.47 153.08L157.99 152.31C157.99 152.31 157.4 153.72 156.47 153.08Z" fill="#263238"/>
<path d="M104.11 293.47C102.708 293.47 101.362 292.916 100.366 291.929C99.3696 290.943 98.8033 289.602 98.7901 288.2C98.6501 274 103.38 262.01 112.47 253.53C123.66 243.09 141.11 238.24 161.63 239.86C176.02 241 185.25 237.5 195.93 233.43C197.69 232.77 199.46 232.09 201.28 231.43C202.606 230.947 204.07 231.011 205.349 231.607C206.628 232.204 207.617 233.284 208.1 234.61C208.583 235.936 208.519 237.4 207.923 238.679C207.326 239.958 206.246 240.947 204.92 241.43C203.15 242.07 201.43 242.73 199.72 243.38C188.83 247.52 177.58 251.79 160.79 250.47C143.29 249.08 128.71 252.93 119.73 261.31C112.73 267.79 109.32 276.8 109.43 288.1C109.437 288.799 109.306 289.492 109.044 290.14C108.783 290.788 108.397 291.378 107.907 291.876C107.418 292.375 106.835 292.773 106.192 293.046C105.549 293.319 104.859 293.463 104.16 293.47H104.11Z" fill="#F4D19B"/>
<path d="M227.145 248.941L205.746 256.781C203.96 257.435 201.988 257.353 200.263 256.553C198.538 255.753 197.201 254.3 196.547 252.515L187.71 228.393C187.056 226.607 187.138 224.635 187.938 222.91C188.738 221.185 190.19 219.848 191.976 219.194L213.375 211.354L227.135 248.913L227.145 248.941Z" fill="#F4D19B"/>
<path opacity="0.7" d="M227.145 248.941L205.746 256.781C203.96 257.435 201.988 257.353 200.263 256.553C198.538 255.753 197.201 254.3 196.547 252.515L187.71 228.393C187.056 226.607 187.138 224.635 187.938 222.91C188.738 221.185 190.19 219.848 191.976 219.194L213.375 211.354L227.135 248.913L227.145 248.941Z" fill="white"/>
<path opacity="0.2" d="M203.84 214.84L213.39 211.35L227.15 248.93L217.6 252.43C216.965 251.815 216.479 251.062 216.18 250.23L204.18 217.44C203.866 216.612 203.75 215.721 203.84 214.84V214.84Z" fill="#F4D19B"/>
<path d="M234.836 220.711L233.897 221.055L236.188 227.308L237.127 226.964L234.836 220.711Z" fill="#F4D19B"/>
<path d="M232.45 217.16L229.08 207.94C228.502 206.377 227.459 205.028 226.091 204.075C224.724 203.122 223.097 202.611 221.43 202.61C220.482 202.607 219.541 202.773 218.65 203.1L212.57 205.33L212.22 204.39L218.31 202.16C219.31 201.794 220.366 201.607 221.43 201.61C223.303 201.614 225.13 202.192 226.665 203.264C228.201 204.337 229.371 205.853 230.02 207.61L233.39 216.83L232.45 217.16Z" fill="#F4D19B"/>
<path d="M227.311 251.635L236.241 248.405C239.159 247.35 240.668 244.129 239.613 241.211L227.492 207.7C226.437 204.783 223.216 203.273 220.299 204.328L211.369 207.558C208.451 208.614 206.941 211.834 207.997 214.752L220.118 248.263C221.173 251.18 224.394 252.69 227.311 251.635Z" fill="#F4D19B"/>
<path d="M222.2 217.87C222.404 218.428 222.438 219.033 222.298 219.61C222.157 220.187 221.849 220.709 221.411 221.111C220.974 221.512 220.427 221.775 219.841 221.865C219.254 221.956 218.653 221.87 218.115 221.619C217.577 221.369 217.126 220.964 216.818 220.456C216.51 219.949 216.36 219.361 216.386 218.768C216.412 218.175 216.614 217.603 216.965 217.124C217.317 216.646 217.802 216.282 218.36 216.08C219.107 215.809 219.93 215.846 220.65 216.181C221.37 216.517 221.928 217.124 222.2 217.87Z" fill="#263238"/>
<path d="M229.67 238.26C229.873 238.817 229.907 239.422 229.766 239.998C229.625 240.575 229.317 241.096 228.88 241.497C228.443 241.898 227.897 242.161 227.311 242.252C226.725 242.343 226.125 242.258 225.587 242.007C225.049 241.757 224.597 241.353 224.289 240.847C223.98 240.34 223.829 239.753 223.854 239.161C223.879 238.568 224.079 237.996 224.429 237.517C224.779 237.038 225.263 236.674 225.82 236.47C226.191 236.334 226.584 236.273 226.978 236.29C227.372 236.306 227.759 236.4 228.116 236.567C228.474 236.733 228.795 236.968 229.062 237.259C229.328 237.549 229.535 237.889 229.67 238.26V238.26Z" fill="#263238"/>
<path d="M142 235.85L141.92 235.76C140.36 234.2 138.71 232.5 137.22 230.76C135.73 229.02 134.27 227.28 132.94 225.48C131.636 223.724 130.45 221.883 129.39 219.97C128.632 218.602 127.986 217.173 127.46 215.7C128.06 213.7 128.7 211.7 129.46 209.78C130.33 207.47 131.31 205.2 132.38 202.96C133.45 200.72 134.59 198.52 135.82 196.37C136.42 195.29 137.05 194.22 137.7 193.17L138.7 191.63C139.01 191.13 139.38 190.63 139.64 190.2L139.75 190.04C140.461 188.956 140.723 187.639 140.482 186.366C140.241 185.093 139.514 183.963 138.456 183.215C137.398 182.467 136.091 182.158 134.81 182.355C133.529 182.552 132.375 183.239 131.59 184.27C131.09 184.95 130.71 185.49 130.31 186.08C129.91 186.67 129.55 187.26 129.17 187.85C128.44 189.03 127.73 190.22 127.05 191.43C125.697 193.844 124.472 196.327 123.38 198.87C122.82 200.13 122.38 201.42 121.81 202.71C121.24 204 120.86 205.31 120.46 206.65C119.611 209.305 118.914 212.006 118.37 214.74V214.97C118.215 215.7 118.267 216.458 118.52 217.16C119.489 219.724 120.776 222.156 122.35 224.4C123.833 226.53 125.485 228.536 127.29 230.4C129.049 232.196 130.916 233.882 132.88 235.45C134.844 237.015 136.905 238.455 139.05 239.76C139.571 240.065 140.185 240.169 140.778 240.053C141.37 239.937 141.9 239.61 142.268 239.131C142.636 238.653 142.817 238.057 142.777 237.455C142.737 236.852 142.478 236.285 142.05 235.86L142 235.85Z" fill="#FF8B7B"/>
<path d="M153.62 240.82L153.49 240.56C153.075 239.693 152.464 238.935 151.706 238.345C150.948 237.755 150.062 237.349 149.12 237.16L141.53 235.62L137.82 237.47C138.22 241.63 144.16 244.12 144.16 244.12L145.85 246.05C146.42 246.697 147.209 247.111 148.065 247.213C148.921 247.314 149.785 247.096 150.49 246.6L152.49 245.17C153.163 244.696 153.645 243.998 153.852 243.202C154.059 242.406 153.977 241.562 153.62 240.82V240.82Z" fill="#FF8B7B"/>
<path d="M135.19 178.65C130.98 180.58 126.5 187.26 126.5 187.26L135.5 204.11C135.5 204.11 145.73 192.32 144.87 186.42C144.17 181.41 140.55 176.19 135.19 178.65Z" fill="#F4D19B"/>
<g opacity="0.3">
<path d="M135.19 178.65C130.98 180.58 126.5 187.26 126.5 187.26L135.5 204.11C135.5 204.11 145.73 192.32 144.87 186.42C144.17 181.41 140.55 176.19 135.19 178.65Z" fill="white"/>
</g>
<path d="M423.29 399.43C414.48 399.43 405.82 397.62 401.62 392.14C381.74 366.14 381.92 313.84 382.09 263.23C382.19 235.98 384.34 210.23 381.31 190.23C379.53 178.44 373.31 170.35 367.03 166.17C357.71 160.01 344.91 163.32 339.44 164.73C338.759 164.92 338.046 164.973 337.344 164.885C336.642 164.796 335.965 164.569 335.352 164.216C334.739 163.862 334.203 163.39 333.774 162.827C333.346 162.264 333.034 161.622 332.857 160.937C332.681 160.252 332.642 159.538 332.744 158.838C332.846 158.138 333.087 157.465 333.452 156.86C333.818 156.254 334.3 155.727 334.871 155.31C335.443 154.892 336.092 154.593 336.78 154.43C343.61 152.66 359.63 148.53 372.89 157.29C381.84 163.2 389.58 173.75 391.83 188.64C394.98 209.44 392.83 235.57 392.73 263.23C392.56 312.06 392.39 362.55 410.07 385.64C411.5 387.5 417.07 389.17 426.32 388.69C427.14 388.69 427.94 388.6 428.73 388.53C428.372 387.806 428.187 387.008 428.19 386.2C428.19 384.789 428.751 383.436 429.748 382.438C430.746 381.441 432.099 380.88 433.51 380.88C445.14 380.88 451.26 381.88 452.44 387.2C452.78 388.73 452.96 392.57 447.34 395.2C443.14 397.17 433.12 399.43 423.29 399.43Z" fill="#F4D19B"/>
<path d="M306.87 404.02L296.02 399.75L301.74 380.94L312.6 385.2L306.87 404.02Z" fill="#FFC3BD"/>
<path d="M295.76 398.6L308 403.4C308.155 403.463 308.285 403.576 308.368 403.721C308.451 403.866 308.484 404.035 308.46 404.2L307.26 411.82C307.229 412.004 307.157 412.179 307.049 412.332C306.941 412.484 306.801 412.611 306.638 412.702C306.475 412.793 306.293 412.847 306.107 412.858C305.92 412.87 305.734 412.84 305.56 412.77C302.49 411.5 297.68 409.4 293.79 407.87C291.4 406.93 286.85 405.43 283.54 404.13C280.23 402.83 281.09 399.39 282.54 399.63C289.13 400.69 291.65 399.56 294.28 398.58C294.758 398.397 295.288 398.404 295.76 398.6V398.6Z" fill="#263238"/>
<path opacity="0.2" d="M312.6 385.21L301.74 380.94L298.79 390.64L309.65 394.91L312.6 385.21Z" fill="black"/>
<path d="M326.17 239.61C326.17 239.61 316.35 288.15 312.6 312.09C308.38 338.92 297.23 387.93 297.23 387.93L311.66 393.6C311.66 393.6 332.27 343.42 335.14 319.12C343.79 299.37 360.99 241.25 360.99 241.25L326.17 239.61Z" fill="#F4D19B"/>
<path d="M296.53 388.01L312.37 394.24L315.08 389.44L297.37 382.1L296.53 388.01Z" fill="#263238"/>
<path d="M292.65 398.81C292.098 398.638 291.619 398.286 291.29 397.81C291.199 397.634 291.151 397.438 291.151 397.24C291.151 397.042 291.199 396.846 291.29 396.67C291.331 396.561 291.401 396.466 291.493 396.396C291.585 396.325 291.695 396.281 291.81 396.27C292.86 396.16 294.81 398.72 295 399.02C295.022 399.053 295.033 399.091 295.033 399.13C295.033 399.169 295.022 399.207 295 399.24C294.979 399.273 294.949 399.299 294.914 399.315C294.878 399.331 294.839 399.336 294.8 399.33C294.067 399.235 293.346 399.061 292.65 398.81V398.81ZM292.12 396.72C292.04 396.68 291.95 396.663 291.86 396.67C291.8 396.67 291.73 396.67 291.66 396.84C291.594 396.959 291.559 397.094 291.559 397.23C291.559 397.367 291.594 397.501 291.66 397.62C291.95 398.15 292.95 398.62 294.4 398.86C293.791 398.001 293.016 397.273 292.12 396.72V396.72Z" fill="#F4D19B"/>
<path d="M294.78 399.32C294.748 399.309 294.72 399.288 294.7 399.26C294.06 398.5 293.16 396.15 293.7 395.34C293.783 395.214 293.907 395.121 294.051 395.076C294.195 395.03 294.35 395.035 294.49 395.09C294.639 395.128 294.778 395.196 294.898 395.291C295.019 395.386 295.118 395.505 295.19 395.64C295.81 396.75 295.11 399.09 295.08 399.19C295.068 399.226 295.047 399.257 295.019 399.282C294.991 399.306 294.957 399.323 294.92 399.33C294.898 399.341 294.873 399.346 294.849 399.344C294.824 399.342 294.801 399.334 294.78 399.32V399.32ZM294.44 395.5H294.36C294.1 395.44 294.04 395.5 294.01 395.59C293.71 396.07 294.2 397.77 294.77 398.7C295.055 397.775 295.055 396.785 294.77 395.86C294.707 395.704 294.59 395.577 294.44 395.5V395.5Z" fill="#F4D19B"/>
<path opacity="0.2" d="M347.34 269C341.9 275.74 339.75 292.92 339.77 307.24C343.44 297.13 347.65 284.29 351.35 272.63L347.34 269Z" fill="black"/>
<path d="M372.17 405.83H360.51L358.96 386.23H370.62L372.17 405.83Z" fill="#FFC3BD"/>
<path d="M359.85 404.85H373C373.169 404.849 373.333 404.906 373.464 405.012C373.595 405.117 373.686 405.265 373.72 405.43L375.39 412.95C375.429 413.134 375.427 413.324 375.382 413.506C375.338 413.688 375.253 413.858 375.134 414.004C375.015 414.149 374.864 414.265 374.694 414.344C374.524 414.423 374.338 414.463 374.15 414.46C370.83 414.4 365.6 414.2 361.42 414.2C358.84 414.2 354.06 414.47 350.51 414.47C346.96 414.47 346.51 410.96 347.94 410.64C354.47 409.21 356.41 407.25 358.49 405.37C358.865 405.037 359.349 404.852 359.85 404.85V404.85Z" fill="#263238"/>
<path opacity="0.2" d="M370.62 386.23H358.95L359.76 396.34H371.43L370.62 386.23Z" fill="black"/>
<path d="M340.29 240.22C340.29 240.22 346.75 294.31 348.11 313.78C350 340.88 357.31 394.38 357.31 394.38H372.81C372.81 394.38 374.47 339.74 371.67 315.43C375.53 294.22 374.31 241.85 374.31 241.85L340.29 240.22Z" fill="#F4D19B"/>
<path d="M356.69 394.71H373.71L374.48 389.26L355.31 388.9L356.69 394.71Z" fill="#263238"/>
<path d="M357 406.18C356.424 406.223 355.85 406.072 355.37 405.75C355.221 405.619 355.105 405.455 355.032 405.271C354.959 405.086 354.931 404.887 354.95 404.69C354.95 404.572 354.983 404.456 355.045 404.356C355.107 404.255 355.195 404.174 355.3 404.12C356.24 403.64 358.97 405.32 359.3 405.51C359.335 405.53 359.363 405.559 359.381 405.595C359.398 405.63 359.405 405.671 359.4 405.71C359.391 405.75 359.371 405.787 359.343 405.817C359.315 405.847 359.28 405.869 359.24 405.88C358.507 406.064 357.756 406.165 357 406.18ZM355.74 404.43C355.651 404.424 355.561 404.442 355.48 404.48C355.43 404.48 355.37 404.56 355.36 404.71C355.339 404.845 355.353 404.982 355.4 405.11C355.448 405.238 355.527 405.351 355.63 405.44C356.09 405.83 357.2 405.88 358.63 405.59C357.76 405.023 356.789 404.629 355.77 404.43H355.74Z" fill="#F4D19B"/>
<path d="M359.2 405.88H359.1C358.23 405.4 356.53 403.55 356.71 402.6C356.74 402.453 356.82 402.32 356.937 402.226C357.054 402.131 357.2 402.079 357.35 402.08C357.501 402.059 357.655 402.07 357.802 402.113C357.949 402.156 358.084 402.23 358.2 402.33C359.2 403.14 359.39 405.58 359.4 405.68C359.402 405.717 359.395 405.753 359.379 405.786C359.363 405.82 359.34 405.848 359.31 405.87C359.275 405.882 359.237 405.886 359.2 405.88V405.88ZM357.49 402.45H357.4C357.14 402.45 357.12 402.61 357.11 402.66C357 403.21 358.11 404.66 358.95 405.28C358.889 404.314 358.541 403.387 357.95 402.62C357.82 402.513 357.658 402.454 357.49 402.45V402.45Z" fill="#F4D19B"/>
<path d="M345.64 165.63L336.3 165.51C333.16 165.51 330.04 165.41 326.95 165.36C326.01 165.36 325.09 165.3 324.16 165.26C324.22 165.26 324.26 165.15 324.31 165.1C324.97 164.4 325.63 163.68 326.31 162.99C326.65 162.63 326.984 162.28 327.31 161.94C327.62 161.6 328.02 161.22 328.23 160.94L329.08 159.86C329.75 159.005 330.134 157.961 330.177 156.876C330.221 155.791 329.921 154.72 329.321 153.815C328.722 152.909 327.852 152.216 326.836 151.833C325.82 151.45 324.709 151.396 323.66 151.68L321.81 152.18C321.24 152.35 320.67 152.54 320.1 152.73C318.98 153.12 317.88 153.55 316.79 154.02C314.594 154.99 312.471 156.12 310.44 157.4C308.336 158.745 306.346 160.26 304.49 161.93C302.526 163.716 300.747 165.696 299.18 167.84C298.785 168.375 298.45 168.952 298.18 169.56C297.252 171.689 297.206 174.099 298.054 176.261C298.901 178.423 300.573 180.16 302.7 181.09L303.61 181.49C305.665 182.374 307.793 183.077 309.97 183.59C311.87 184.08 313.67 184.4 315.44 184.7C317.21 185 318.94 185.24 320.66 185.45C322.38 185.66 324.08 185.82 325.78 185.96C329.17 186.26 332.53 186.41 335.88 186.51C339.23 186.61 342.51 186.61 345.99 186.45C348.704 186.334 351.265 185.163 353.128 183.187C354.991 181.211 356.009 178.585 355.965 175.869C355.92 173.154 354.817 170.563 352.891 168.648C350.964 166.734 348.366 165.647 345.65 165.62L345.64 165.63Z" fill="#FFC3BD"/>
<path d="M351.08 183.88C343.01 193.08 323.59 189.64 323.59 189.64L324.66 166.72C331.317 165.255 338.105 164.468 344.92 164.37C356.32 164.35 357.54 176.5 351.08 183.88Z" fill="#263238"/>
<path d="M329.54 176.83C329.06 180.53 328.54 185.51 328.23 192.21C324.02 213.51 322.45 228.6 326.17 239.61C329.11 243.24 367.42 242.54 374.31 241.84C378.31 231.94 378.73 203.52 379.2 179.63C379.259 176.338 378.137 173.134 376.036 170.598C373.936 168.063 370.996 166.364 367.75 165.81C359.129 164.282 350.335 163.986 341.63 164.93C338.575 165.278 335.725 166.638 333.533 168.795C331.342 170.952 329.936 173.781 329.54 176.83V176.83Z" fill="#263238"/>
<path opacity="0.2" d="M366.71 191.37C366.84 198.65 372.12 210.28 378.06 216.18C378.42 210.03 378.65 203.36 378.83 196.63L366.71 191.37Z" fill="black"/>
<path d="M400.09 205.52L399.75 204.72C398.352 201.385 396.718 198.153 394.86 195.05C393.08 192.05 391.16 189.22 389.17 186.49C387.18 183.76 385.07 181.15 382.91 178.61C381.81 177.35 380.72 176.09 379.57 174.87L377.84 173.05L376 171.19C374.073 169.287 371.48 168.209 368.771 168.185C366.063 168.161 363.451 169.193 361.49 171.061C359.53 172.93 358.373 175.488 358.267 178.195C358.16 180.902 359.112 183.543 360.92 185.56L361.22 185.89L367.09 192.42C369.09 194.64 371 196.9 372.9 199.15C373.82 200.28 374.77 201.41 375.63 202.56C376.49 203.71 377.4 204.82 378.26 205.96C379.5 207.69 380.7 209.41 381.77 211.1C381.606 211.953 381.399 212.798 381.15 213.63C380.431 216.052 379.587 218.436 378.62 220.77C377.62 223.24 376.56 225.77 375.46 228.26C374.36 230.75 373.18 233.35 372.13 235.85L372.03 236.07C371.569 237.175 371.499 238.404 371.832 239.555C372.164 240.705 372.879 241.707 373.858 242.396C374.837 243.085 376.022 243.419 377.217 243.344C378.412 243.268 379.545 242.787 380.43 241.98C382.636 239.935 384.729 237.772 386.7 235.5C388.7 233.253 390.577 230.887 392.33 228.4C393.22 227.15 394.07 225.85 394.91 224.5C395.783 223.127 396.58 221.709 397.3 220.25C398.11 218.659 398.811 217.015 399.4 215.33C400.167 213.172 400.599 210.909 400.68 208.62C400.706 207.557 400.505 206.5 400.09 205.52V205.52Z" fill="#FFC3BD"/>
<path d="M368.43 165.94C381.92 168.25 390.71 186.51 390.71 186.51L374.45 204C374.45 204 365.08 194.46 359.45 185.62C353.38 176 358.77 164.3 368.43 165.94Z" fill="#263238"/>
<path d="M343.79 137.15C341.53 133.36 340.79 128.15 344.93 122.84C344.123 122.941 343.305 122.806 342.573 122.451C341.842 122.096 341.23 121.536 340.81 120.84C345.343 117.131 351.044 115.147 356.9 115.24C369 115.24 369.9 119.91 369.49 123.1C377.77 123.63 383.81 145.16 362.82 148.97C350.81 136.32 343.79 137.15 343.79 137.15Z" fill="#263238"/>
<path d="M368.73 123.49C368.73 123.49 372.1 120.05 367.91 115.89C368.849 116.148 369.706 116.644 370.397 117.331C371.087 118.018 371.588 118.872 371.85 119.81C372.44 122.23 370.81 124.17 368.73 123.49Z" fill="#263238"/>
<path d="M364.09 146.34C363.77 152.97 363.17 160.51 364.28 165.8C362.56 168.51 358.16 171.63 350.28 172.33C347.48 170.74 343.78 166.85 345.07 164.85C348.42 162.7 349.84 156.19 348.88 151.32L364.09 146.34Z" fill="#FFC3BD"/>
<path opacity="0.2" d="M360.25 147.59L348.86 151.32C349.248 153.394 349.265 155.52 348.91 157.6C352.31 157.49 357.02 154.93 358.79 152.53C359.367 151.855 359.795 151.067 360.047 150.216C360.298 149.364 360.368 148.47 360.25 147.59Z" fill="black"/>
<path d="M367.41 135.84C365.3 143.97 364.48 148.84 359.5 152.25C352.01 157.38 342.59 151.63 342.22 143.04C341.9 135.3 345.4 123.3 354.1 121.59C356.016 121.206 357.998 121.318 359.858 121.915C361.718 122.513 363.395 123.576 364.729 125.004C366.062 126.432 367.009 128.177 367.478 130.073C367.947 131.97 367.924 133.955 367.41 135.84V135.84Z" fill="#FFC3BD"/>
<path d="M365.73 124.2C362.16 126.74 357.73 137.5 366.73 141.82C374.81 134.72 372.72 124.2 365.73 124.2Z" fill="#263238"/>
<path d="M367.79 125.49C369.32 118.41 351.45 114.75 345.79 123.02C343.87 128 366.71 132.4 367.79 125.49Z" fill="#263238"/>
<path d="M354.46 144.47C352.604 143.631 350.613 143.126 348.58 142.98C348.552 142.98 348.524 142.986 348.498 142.997C348.471 143.008 348.448 143.025 348.428 143.045C348.409 143.066 348.393 143.09 348.383 143.117C348.373 143.143 348.369 143.172 348.37 143.2C348.382 143.265 348.414 143.324 348.463 143.367C348.512 143.411 348.575 143.437 348.64 143.44C350.589 143.581 352.498 144.062 354.28 144.86C354.336 144.885 354.4 144.887 354.457 144.867C354.515 144.846 354.562 144.804 354.59 144.75C354.601 144.723 354.607 144.694 354.606 144.665C354.606 144.636 354.599 144.608 354.587 144.582C354.574 144.555 354.557 144.532 354.535 144.513C354.513 144.493 354.488 144.479 354.46 144.47V144.47Z" fill="#263238"/>
<path d="M369.36 144.73C367.911 146.268 365.912 147.171 363.8 147.24C361 147.3 360.29 144.63 361.64 142.35C362.86 140.35 365.78 137.79 368.32 138.81C370.86 139.83 371.12 142.82 369.36 144.73Z" fill="#FFC3BD"/>
<path d="M354.48 135.7C354.35 136.37 353.89 136.85 353.48 136.76C353.07 136.67 352.8 136.06 352.93 135.39C353.06 134.72 353.52 134.25 353.93 134.39C354.34 134.53 354.61 135 354.48 135.7Z" fill="#263238"/>
<path d="M346.91 134.23C346.78 134.9 346.32 135.37 345.91 135.29C345.5 135.21 345.22 134.59 345.35 133.92C345.48 133.25 345.94 132.77 346.35 132.86C346.76 132.95 347 133.56 346.91 134.23Z" fill="#263238"/>
<path d="M349.25 135C348.05 136.893 346.597 138.612 344.93 140.11C345.93 141.44 348.14 141.18 348.14 141.18L349.25 135Z" fill="#ED847E"/>
<path d="M353.39 131.81C353.462 131.794 353.536 131.797 353.606 131.818C353.676 131.839 353.739 131.878 353.79 131.93C354.111 132.318 354.52 132.625 354.982 132.824C355.445 133.024 355.948 133.112 356.45 133.08C356.556 133.066 356.663 133.093 356.749 133.157C356.835 133.22 356.893 133.315 356.91 133.42C356.919 133.472 356.917 133.525 356.904 133.576C356.891 133.628 356.868 133.676 356.837 133.718C356.805 133.76 356.765 133.795 356.719 133.821C356.673 133.847 356.623 133.864 356.57 133.87C355.935 133.921 355.297 133.82 354.709 133.575C354.122 133.329 353.601 132.947 353.19 132.46C353.153 132.424 353.123 132.38 353.103 132.332C353.082 132.284 353.072 132.232 353.072 132.18C353.072 132.128 353.082 132.076 353.103 132.028C353.123 131.98 353.153 131.936 353.19 131.9C353.25 131.856 353.318 131.825 353.39 131.81V131.81Z" fill="#263238"/>
<path d="M344.57 129.59C344.487 129.573 344.413 129.527 344.36 129.46C344.326 129.418 344.302 129.37 344.287 129.319C344.272 129.267 344.268 129.213 344.274 129.16C344.281 129.107 344.298 129.056 344.325 129.009C344.352 128.963 344.387 128.922 344.43 128.89C344.921 128.487 345.501 128.208 346.122 128.074C346.743 127.94 347.387 127.956 348 128.12C348.101 128.154 348.185 128.227 348.234 128.322C348.282 128.417 348.292 128.528 348.26 128.63C348.22 128.727 348.146 128.805 348.052 128.851C347.958 128.897 347.851 128.907 347.75 128.88V128.88C347.261 128.755 346.75 128.748 346.258 128.86C345.766 128.971 345.308 129.197 344.92 129.52C344.873 129.562 344.816 129.591 344.755 129.603C344.693 129.615 344.629 129.611 344.57 129.59V129.59Z" fill="#263238"/>
<path d="M376.85 235.56L368.26 235.5L372.7 245.36C372.7 245.36 380.03 243.79 379.63 239.81L376.85 235.56Z" fill="#FFC3BD"/>
<path d="M363.89 242.27L365.3 245.05C365.679 245.79 366.321 246.362 367.099 246.655C367.878 246.947 368.738 246.938 369.51 246.63L372.7 245.36L368.26 235.5L364.85 238.1C364.226 238.572 363.787 239.248 363.612 240.01C363.436 240.773 363.535 241.573 363.89 242.27Z" fill="#FFC3BD"/>
<path d="M311.46 228.3C310.422 228.289 309.41 227.976 308.548 227.398C307.686 226.821 307.011 226.004 306.607 225.048C306.202 224.093 306.085 223.04 306.271 222.018C306.456 220.997 306.935 220.053 307.65 219.3C311.47 215.36 314.92 212.3 317.96 209.63C325.3 203.16 327.83 200.63 327.59 195.78C327.231 192.788 326.595 189.835 325.69 186.96C323.5 178.91 321.02 169.8 325.27 162.49C327.55 158.56 331.42 155.87 336.78 154.49C338.135 154.168 339.562 154.391 340.755 155.11C341.948 155.829 342.811 156.988 343.16 158.336C343.508 159.685 343.313 161.116 342.618 162.323C341.922 163.529 340.782 164.415 339.44 164.79C335.67 165.79 334.76 167.32 334.44 167.84C332.44 171.29 334.37 178.43 335.93 184.16C337.06 187.773 337.817 191.493 338.19 195.26C338.69 205.51 332.64 210.85 324.97 217.61C322.08 220.17 318.79 223.07 315.25 226.71C314.756 227.215 314.167 227.615 313.516 227.888C312.865 228.161 312.166 228.301 311.46 228.3V228.3Z" fill="#F4D19B"/>
<path d="M323.13 151.9L331.45 149.77L329.51 160.41C329.51 160.41 322.02 160.64 321.46 156.69L323.13 151.9Z" fill="#FFC3BD"/>
<path d="M337.29 155.41L336.65 158.19C336.454 159.039 335.947 159.784 335.229 160.278C334.511 160.772 333.634 160.98 332.77 160.86L329.51 160.41L331.45 149.77L335.27 151.42C336.021 151.743 336.634 152.32 337.003 153.049C337.372 153.778 337.474 154.614 337.29 155.41Z" fill="#FFC3BD"/>
<path d="M308.486 210.803L308.259 210.576C307.248 209.565 305.608 209.565 304.597 210.577L275.108 240.076C274.097 241.087 274.097 242.727 275.109 243.738L275.335 243.965C276.347 244.976 277.987 244.976 278.998 243.964L308.486 214.465C309.498 213.454 309.497 211.814 308.486 210.803Z" fill="#263238"/>
<path d="M323.855 226.152L323.628 225.926C322.617 224.914 320.977 224.914 319.965 225.926L290.472 255.419C289.461 256.43 289.461 258.07 290.472 259.082L290.698 259.308C291.71 260.32 293.35 260.32 294.361 259.308L323.855 229.815C324.866 228.803 324.866 227.163 323.855 226.152Z" fill="#263238"/>
<path d="M284.413 221.783L305.194 201.001C305.86 200.336 306.651 199.807 307.521 199.447C308.39 199.087 309.323 198.901 310.264 198.901C311.206 198.901 312.138 199.087 313.008 199.447C313.878 199.807 314.669 200.336 315.334 201.001L333.5 219.167C334.166 219.833 334.694 220.623 335.054 221.493C335.415 222.363 335.6 223.295 335.6 224.237C335.6 225.178 335.415 226.111 335.054 226.981C334.694 227.851 334.166 228.641 333.5 229.307L312.718 250.089L284.413 221.783Z" fill="#F4D19B"/>
<path opacity="0.7" d="M284.413 221.783L305.194 201.001C305.86 200.336 306.651 199.807 307.521 199.447C308.39 199.087 309.323 198.901 310.264 198.901C311.206 198.901 312.138 199.087 313.008 199.447C313.878 199.807 314.669 200.336 315.334 201.001L333.5 219.167C334.166 219.833 334.694 220.623 335.054 221.493C335.415 222.363 335.6 223.295 335.6 224.237C335.6 225.178 335.415 226.111 335.054 226.981C334.694 227.851 334.166 228.641 333.5 229.307L312.718 250.089L284.413 221.783Z" fill="white"/>
<path opacity="0.2" d="M291.58 214.56L284.38 221.75L312.69 250.06L319.88 242.86C319.594 242.023 319.119 241.263 318.49 240.64L293.8 216C293.183 215.354 292.422 214.861 291.58 214.56V214.56Z" fill="#F4D19B"/>
<path d="M283.166 218.124L282.65 218.64C280.455 220.835 280.455 224.394 282.65 226.588L307.859 251.797C310.053 253.991 313.612 253.991 315.806 251.797L316.323 251.28C318.517 249.086 318.517 245.527 316.323 243.333L291.114 218.124C288.92 215.93 285.361 215.93 283.166 218.124Z" fill="#F4D19B"/>
<path d="M361.52 37.96H138.48C133.83 37.96 130.06 41.7297 130.06 46.38V87.06C130.06 91.7102 133.83 95.48 138.48 95.48H361.52C366.17 95.48 369.94 91.7102 369.94 87.06V46.38C369.94 41.7297 366.17 37.96 361.52 37.96Z" fill="white"/>
<path d="M361.52 96.22H138.52C136.091 96.2173 133.763 95.2514 132.046 93.5341C130.328 91.8169 129.363 89.4885 129.36 87.06V46.38C129.363 43.9514 130.328 41.6231 132.046 39.9058C133.763 38.1885 136.091 37.2226 138.52 37.22H361.52C363.948 37.2226 366.277 38.1885 367.994 39.9058C369.711 41.6231 370.677 43.9514 370.68 46.38V87.06C370.677 89.4885 369.711 91.8169 367.994 93.5341C366.277 95.2514 363.948 96.2173 361.52 96.22ZM138.52 38.7C136.484 38.7026 134.532 39.5126 133.092 40.9523C131.653 42.392 130.843 44.3439 130.84 46.38V87.06C130.843 89.096 131.653 91.0479 133.092 92.4876C134.532 93.9273 136.484 94.7373 138.52 94.74H361.52C363.556 94.7373 365.508 93.9273 366.948 92.4876C368.387 91.0479 369.197 89.096 369.2 87.06V46.38C369.197 44.3439 368.387 42.392 366.948 40.9523C365.508 39.5126 363.556 38.7026 361.52 38.7H138.52Z" fill="#263238"/>
<path d="M250 125.03C260.239 125.03 268.54 116.729 268.54 106.49C268.54 96.2506 260.239 87.95 250 87.95C239.761 87.95 231.46 96.2506 231.46 106.49C231.46 116.729 239.761 125.03 250 125.03Z" fill="#263238"/>
<path d="M250 122.27C258.715 122.27 265.78 115.205 265.78 106.49C265.78 97.7749 258.715 90.71 250 90.71C241.285 90.71 234.22 97.7749 234.22 106.49C234.22 115.205 241.285 122.27 250 122.27Z" fill="white"/>
<path d="M260.67 103.09H253.27L259.48 84.72L239.33 109.89H246.73L240.52 128.26L260.67 103.09Z" fill="#F4D19B"/>
<path d="M261.303 119.993L263.509 117.786L238.697 92.974L236.491 95.1802L261.303 119.993Z" fill="#263238"/>
<path d="M155.66 74V60H158.34L166.6 70.08H165.3V60H168.5V74H165.84L157.56 63.92H158.86V74H155.66ZM177.512 74.16C176.366 74.16 175.346 73.92 174.452 73.44C173.572 72.96 172.872 72.3067 172.352 71.48C171.846 70.64 171.592 69.6867 171.592 68.62C171.592 67.54 171.846 66.5867 172.352 65.76C172.872 64.92 173.572 64.2667 174.452 63.8C175.346 63.32 176.366 63.08 177.512 63.08C178.646 63.08 179.659 63.32 180.552 63.8C181.446 64.2667 182.146 64.9133 182.652 65.74C183.159 66.5667 183.412 67.5267 183.412 68.62C183.412 69.6867 183.159 70.64 182.652 71.48C182.146 72.3067 181.446 72.96 180.552 73.44C179.659 73.92 178.646 74.16 177.512 74.16ZM177.512 71.6C178.032 71.6 178.499 71.48 178.912 71.24C179.326 71 179.652 70.66 179.892 70.22C180.132 69.7667 180.252 69.2333 180.252 68.62C180.252 67.9933 180.132 67.46 179.892 67.02C179.652 66.58 179.326 66.24 178.912 66C178.499 65.76 178.032 65.64 177.512 65.64C176.992 65.64 176.526 65.76 176.112 66C175.699 66.24 175.366 66.58 175.112 67.02C174.872 67.46 174.752 67.9933 174.752 68.62C174.752 69.2333 174.872 69.7667 175.112 70.22C175.366 70.66 175.699 71 176.112 71.24C176.526 71.48 176.992 71.6 177.512 71.6ZM192.982 74V60H199.042C200.295 60 201.375 60.2067 202.282 60.62C203.189 61.02 203.889 61.6 204.382 62.36C204.875 63.12 205.122 64.0267 205.122 65.08C205.122 66.12 204.875 67.02 204.382 67.78C203.889 68.5267 203.189 69.1 202.282 69.5C201.375 69.9 200.295 70.1 199.042 70.1H194.782L196.222 68.68V74H192.982ZM201.882 74L198.382 68.92H201.842L205.382 74H201.882ZM196.222 69.04L194.782 67.52H198.862C199.862 67.52 200.609 67.3067 201.102 66.88C201.595 66.44 201.842 65.84 201.842 65.08C201.842 64.3067 201.595 63.7067 201.102 63.28C200.609 62.8533 199.862 62.64 198.862 62.64H194.782L196.222 61.1V69.04ZM213.609 74.16C212.382 74.16 211.302 73.92 210.369 73.44C209.449 72.96 208.736 72.3067 208.229 71.48C207.722 70.64 207.469 69.6867 207.469 68.62C207.469 67.54 207.716 66.5867 208.209 65.76C208.716 64.92 209.402 64.2667 210.269 63.8C211.136 63.32 212.116 63.08 213.209 63.08C214.262 63.08 215.209 63.3067 216.049 63.76C216.902 64.2 217.576 64.84 218.069 65.68C218.562 66.5067 218.809 67.5 218.809 68.66C218.809 68.78 218.802 68.92 218.789 69.08C218.776 69.2267 218.762 69.3667 218.749 69.5H210.009V67.68H217.109L215.909 68.22C215.909 67.66 215.796 67.1733 215.569 66.76C215.342 66.3467 215.029 66.0267 214.629 65.8C214.229 65.56 213.762 65.44 213.229 65.44C212.696 65.44 212.222 65.56 211.809 65.8C211.409 66.0267 211.096 66.3533 210.869 66.78C210.642 67.1933 210.529 67.6867 210.529 68.26V68.74C210.529 69.3267 210.656 69.8467 210.909 70.3C211.176 70.74 211.542 71.08 212.009 71.32C212.489 71.5467 213.049 71.66 213.689 71.66C214.262 71.66 214.762 71.5733 215.189 71.4C215.629 71.2267 216.029 70.9667 216.389 70.62L218.049 72.42C217.556 72.98 216.936 73.4133 216.189 73.72C215.442 74.0133 214.582 74.16 213.609 74.16ZM225.306 74.16C224.386 74.16 223.499 74.0533 222.646 73.84C221.806 73.6133 221.139 73.3333 220.646 73L221.686 70.76C222.179 71.0667 222.759 71.32 223.426 71.52C224.106 71.7067 224.773 71.8 225.426 71.8C226.146 71.8 226.653 71.7133 226.946 71.54C227.253 71.3667 227.406 71.1267 227.406 70.82C227.406 70.5667 227.286 70.38 227.046 70.26C226.819 70.1267 226.513 70.0267 226.126 69.96C225.739 69.8933 225.313 69.8267 224.846 69.76C224.393 69.6933 223.933 69.6067 223.466 69.5C222.999 69.38 222.573 69.2067 222.186 68.98C221.799 68.7533 221.486 68.4467 221.246 68.06C221.019 67.6733 220.906 67.1733 220.906 66.56C220.906 65.88 221.099 65.28 221.486 64.76C221.886 64.24 222.459 63.8333 223.206 63.54C223.953 63.2333 224.846 63.08 225.886 63.08C226.619 63.08 227.366 63.16 228.126 63.32C228.886 63.48 229.519 63.7133 230.026 64.02L228.986 66.24C228.466 65.9333 227.939 65.7267 227.406 65.62C226.886 65.5 226.379 65.44 225.886 65.44C225.193 65.44 224.686 65.5333 224.366 65.72C224.046 65.9067 223.886 66.1467 223.886 66.44C223.886 66.7067 223.999 66.9067 224.226 67.04C224.466 67.1733 224.779 67.28 225.166 67.36C225.553 67.44 225.973 67.5133 226.426 67.58C226.893 67.6333 227.359 67.72 227.826 67.84C228.293 67.96 228.713 68.1333 229.086 68.36C229.473 68.5733 229.786 68.8733 230.026 69.26C230.266 69.6333 230.386 70.1267 230.386 70.74C230.386 71.4067 230.186 72 229.786 72.52C229.386 73.0267 228.806 73.4267 228.046 73.72C227.299 74.0133 226.386 74.16 225.306 74.16ZM237.651 74.16C236.758 74.16 235.958 73.9867 235.251 73.64C234.558 73.2933 234.018 72.7667 233.631 72.06C233.244 71.34 233.051 70.4267 233.051 69.32V63.24H236.171V68.86C236.171 69.7533 236.358 70.4133 236.731 70.84C237.118 71.2533 237.658 71.46 238.351 71.46C238.831 71.46 239.258 71.36 239.631 71.16C240.004 70.9467 240.298 70.6267 240.511 70.2C240.724 69.76 240.831 69.2133 240.831 68.56V63.24H243.951V74H240.991V71.04L241.531 71.9C241.171 72.6467 240.638 73.2133 239.931 73.6C239.238 73.9733 238.478 74.16 237.651 74.16ZM247.642 74V59.16H250.762V74H247.642ZM259.658 74.16C258.391 74.16 257.405 73.84 256.698 73.2C255.991 72.5467 255.638 71.58 255.638 70.3V60.86H258.758V70.26C258.758 70.7133 258.878 71.0667 259.118 71.32C259.358 71.56 259.685 71.68 260.098 71.68C260.591 71.68 261.011 71.5467 261.358 71.28L262.198 73.48C261.878 73.7067 261.491 73.88 261.038 74C260.598 74.1067 260.138 74.16 259.658 74.16ZM253.978 65.88V63.48H261.438V65.88H253.978ZM274.433 66.3H281.153V68.9H274.433V66.3ZM274.673 74H271.433V60H282.013V62.6H274.673V74ZM289.653 74.16C288.506 74.16 287.486 73.92 286.593 73.44C285.713 72.96 285.013 72.3067 284.493 71.48C283.986 70.64 283.733 69.6867 283.733 68.62C283.733 67.54 283.986 66.5867 284.493 65.76C285.013 64.92 285.713 64.2667 286.593 63.8C287.486 63.32 288.506 63.08 289.653 63.08C290.786 63.08 291.8 63.32 292.693 63.8C293.586 64.2667 294.286 64.9133 294.793 65.74C295.3 66.5667 295.553 67.5267 295.553 68.62C295.553 69.6867 295.3 70.64 294.793 71.48C294.286 72.3067 293.586 72.96 292.693 73.44C291.8 73.92 290.786 74.16 289.653 74.16ZM289.653 71.6C290.173 71.6 290.64 71.48 291.053 71.24C291.466 71 291.793 70.66 292.033 70.22C292.273 69.7667 292.393 69.2333 292.393 68.62C292.393 67.9933 292.273 67.46 292.033 67.02C291.793 66.58 291.466 66.24 291.053 66C290.64 65.76 290.173 65.64 289.653 65.64C289.133 65.64 288.666 65.76 288.253 66C287.84 66.24 287.506 66.58 287.253 67.02C287.013 67.46 286.893 67.9933 286.893 68.62C286.893 69.2333 287.013 69.7667 287.253 70.22C287.506 70.66 287.84 71 288.253 71.24C288.666 71.48 289.133 71.6 289.653 71.6ZM302.978 74.16C302.085 74.16 301.285 73.9867 300.578 73.64C299.885 73.2933 299.345 72.7667 298.958 72.06C298.572 71.34 298.378 70.4267 298.378 69.32V63.24H301.498V68.86C301.498 69.7533 301.685 70.4133 302.058 70.84C302.445 71.2533 302.985 71.46 303.678 71.46C304.158 71.46 304.585 71.36 304.958 71.16C305.332 70.9467 305.625 70.6267 305.838 70.2C306.052 69.76 306.158 69.2133 306.158 68.56V63.24H309.278V74H306.318V71.04L306.858 71.9C306.498 72.6467 305.965 73.2133 305.258 73.6C304.565 73.9733 303.805 74.16 302.978 74.16ZM319.509 63.08C320.362 63.08 321.122 63.2533 321.789 63.6C322.469 63.9333 323.002 64.4533 323.389 65.16C323.776 65.8533 323.969 66.7467 323.969 67.84V74H320.849V68.32C320.849 67.4533 320.656 66.8133 320.269 66.4C319.896 65.9867 319.362 65.78 318.669 65.78C318.176 65.78 317.729 65.8867 317.329 66.1C316.942 66.3 316.636 66.6133 316.409 67.04C316.196 67.4667 316.089 68.0133 316.089 68.68V74H312.969V63.24H315.949V66.22L315.389 65.32C315.776 64.6 316.329 64.0467 317.049 63.66C317.769 63.2733 318.589 63.08 319.509 63.08ZM332.295 74.16C331.282 74.16 330.368 73.9333 329.555 73.48C328.742 73.0133 328.095 72.3667 327.615 71.54C327.148 70.7133 326.915 69.74 326.915 68.62C326.915 67.4867 327.148 66.5067 327.615 65.68C328.095 64.8533 328.742 64.2133 329.555 63.76C330.368 63.3067 331.282 63.08 332.295 63.08C333.202 63.08 333.995 63.28 334.675 63.68C335.355 64.08 335.882 64.6867 336.255 65.5C336.628 66.3133 336.815 67.3533 336.815 68.62C336.815 69.8733 336.635 70.9133 336.275 71.74C335.915 72.5533 335.395 73.16 334.715 73.56C334.048 73.96 333.242 74.16 332.295 74.16ZM332.835 71.6C333.342 71.6 333.802 71.48 334.215 71.24C334.628 71 334.955 70.66 335.195 70.22C335.448 69.7667 335.575 69.2333 335.575 68.62C335.575 67.9933 335.448 67.46 335.195 67.02C334.955 66.58 334.628 66.24 334.215 66C333.802 65.76 333.342 65.64 332.835 65.64C332.315 65.64 331.848 65.76 331.435 66C331.022 66.24 330.688 66.58 330.435 67.02C330.195 67.46 330.075 67.9933 330.075 68.62C330.075 69.2333 330.195 69.7667 330.435 70.22C330.688 70.66 331.022 71 331.435 71.24C331.848 71.48 332.315 71.6 332.835 71.6ZM335.655 74V71.8L335.715 68.6L335.515 65.42V59.16H338.635V74H335.655ZM342.543 69.14L341.923 60H345.643L345.023 69.14H342.543ZM343.783 74.16C343.223 74.16 342.763 73.98 342.403 73.62C342.043 73.26 341.863 72.8333 341.863 72.34C341.863 71.8333 342.043 71.4133 342.403 71.08C342.763 70.7333 343.223 70.56 343.783 70.56C344.356 70.56 344.816 70.7333 345.163 71.08C345.523 71.4133 345.703 71.8333 345.703 72.34C345.703 72.8333 345.523 73.26 345.163 73.62C344.816 73.98 344.356 74.16 343.783 74.16Z" fill="black"/>
</svg>
