<svg width="77" height="40" viewBox="0 0 77 40" fill="none" xmlns="http://www.w3.org/2000/svg">
<path d="M4.87061 9.56152H1.70654V9.01953H4.87061C5.5542 9.01953 6.11084 8.90723 6.54053 8.68262C6.97021 8.45312 7.28271 8.14795 7.47803 7.76709C7.67822 7.38135 7.77832 6.95654 7.77832 6.49268C7.77832 6.01416 7.67822 5.57715 7.47803 5.18164C7.28271 4.78613 6.97021 4.47119 6.54053 4.23682C6.11084 3.99756 5.5542 3.87793 4.87061 3.87793H2.01416V14H1.4209V3.33594H4.87061C5.63721 3.33594 6.2793 3.46777 6.79688 3.73145C7.31934 3.99512 7.7124 4.36377 7.97607 4.8374C8.23975 5.30615 8.37158 5.85303 8.37158 6.47803C8.37158 7.11279 8.23975 7.66211 7.97607 8.12598C7.7124 8.58496 7.32178 8.93896 6.8042 9.18799C6.28662 9.43701 5.64209 9.56152 4.87061 9.56152ZM9.65332 10.1768V9.89844C9.65332 9.31738 9.73633 8.78516 9.90234 8.30176C10.0732 7.81836 10.3125 7.40088 10.6201 7.04932C10.9277 6.69287 11.2939 6.41699 11.7188 6.22168C12.1484 6.02637 12.6245 5.92871 13.147 5.92871C13.6694 5.92871 14.1455 6.02637 14.5752 6.22168C15.0049 6.41699 15.3735 6.69287 15.6812 7.04932C15.9937 7.40088 16.2329 7.81836 16.3989 8.30176C16.5649 8.78516 16.6479 9.31738 16.6479 9.89844V10.1768C16.6479 10.7578 16.5649 11.29 16.3989 11.7734C16.2329 12.2568 15.9961 12.6768 15.6885 13.0332C15.3809 13.3848 15.0122 13.6582 14.5825 13.8535C14.1577 14.0488 13.6841 14.1465 13.1616 14.1465C12.6343 14.1465 12.1558 14.0488 11.7261 13.8535C11.3013 13.6582 10.9326 13.3848 10.6201 13.0332C10.3125 12.6768 10.0732 12.2568 9.90234 11.7734C9.73633 11.29 9.65332 10.7578 9.65332 10.1768ZM10.2393 9.89844V10.1768C10.2393 10.6357 10.3027 11.0728 10.4297 11.4878C10.5615 11.8979 10.752 12.2642 11.001 12.5864C11.25 12.9038 11.5552 13.1553 11.9165 13.3408C12.2778 13.5215 12.6929 13.6118 13.1616 13.6118C13.6206 13.6118 14.0308 13.5215 14.3921 13.3408C14.7534 13.1553 15.0562 12.9038 15.3003 12.5864C15.5493 12.2642 15.7373 11.8979 15.8643 11.4878C15.9961 11.0728 16.062 10.6357 16.062 10.1768V9.89844C16.062 9.44922 15.9961 9.01953 15.8643 8.60938C15.7373 8.19922 15.5493 7.83301 15.3003 7.51074C15.0513 7.18848 14.7461 6.93457 14.3848 6.74902C14.0234 6.55859 13.6108 6.46338 13.147 6.46338C12.6831 6.46338 12.2705 6.55859 11.9092 6.74902C11.5527 6.93457 11.2476 7.18848 10.9937 7.51074C10.7446 7.83301 10.5566 8.19922 10.4297 8.60938C10.3027 9.01953 10.2393 9.44922 10.2393 9.89844ZM20.8521 11.8833L22.6758 6.0752H23.1372L22.6538 7.91357L20.6982 14H20.2295L20.8521 11.8833ZM18.4937 6.0752L20.1343 11.8906L20.6323 14H20.1636L17.8638 6.0752H18.4937ZM25.7739 11.8833L27.3926 6.0752H28.0298L25.7227 14H25.2539L25.7739 11.8833ZM23.2178 6.0752L25.0342 11.8613L25.6567 14H25.188L23.2031 7.91357L22.749 6.0752H23.2178ZM32.8052 14.1465C32.3071 14.1465 31.8457 14.0513 31.4209 13.8608C30.9961 13.6655 30.625 13.3945 30.3076 13.0479C29.9902 12.6963 29.7412 12.2812 29.5605 11.8027C29.3848 11.3242 29.2969 10.7993 29.2969 10.228V9.90576C29.2969 9.31494 29.3848 8.77783 29.5605 8.29443C29.7412 7.80615 29.9854 7.38623 30.293 7.03467C30.6006 6.67822 30.9546 6.40479 31.355 6.21436C31.7603 6.02393 32.1924 5.92871 32.6514 5.92871C33.1152 5.92871 33.5352 6.01416 33.9111 6.18506C34.2871 6.35596 34.6094 6.59521 34.8779 6.90283C35.1465 7.21045 35.3516 7.57666 35.4932 8.00146C35.6348 8.42627 35.7056 8.89502 35.7056 9.40771V9.89844H29.6631V9.36377H35.127V9.26855C35.1221 8.77051 35.0195 8.30908 34.8193 7.88428C34.624 7.45947 34.3433 7.11768 33.9771 6.85889C33.6108 6.59521 33.1689 6.46338 32.6514 6.46338C32.2363 6.46338 31.8579 6.55127 31.5161 6.72705C31.1792 6.90283 30.8887 7.14697 30.6445 7.45947C30.4004 7.76709 30.2124 8.13086 30.0806 8.55078C29.9487 8.96582 29.8828 9.41748 29.8828 9.90576V10.228C29.8828 10.6968 29.9561 11.1362 30.1025 11.5464C30.249 11.9565 30.4541 12.3179 30.7178 12.6304C30.9814 12.938 31.2915 13.1797 31.6479 13.3555C32.0044 13.5312 32.395 13.6191 32.8198 13.6191C33.2788 13.6191 33.6987 13.5386 34.0796 13.3774C34.4604 13.2163 34.8071 12.9331 35.1196 12.5278L35.5005 12.8135C35.3247 13.0674 35.1123 13.2944 34.8633 13.4946C34.6143 13.6948 34.3188 13.8535 33.9771 13.9707C33.6401 14.0879 33.2495 14.1465 32.8052 14.1465ZM38.0933 7.42285V14H37.5146V6.0752H38.0859L38.0933 7.42285ZM41.1108 6.0166L41.0742 6.54395C40.9863 6.5293 40.8984 6.51709 40.8105 6.50732C40.7227 6.49756 40.6299 6.49268 40.5322 6.49268C40.1123 6.49268 39.7437 6.57568 39.4263 6.7417C39.1138 6.90771 38.8501 7.13477 38.6353 7.42285C38.4253 7.71094 38.2666 8.04541 38.1592 8.42627C38.0518 8.80713 37.9956 9.21484 37.9907 9.64941L37.7051 9.70801C37.7051 9.16602 37.7612 8.66553 37.8735 8.20654C37.9907 7.74756 38.1665 7.34717 38.4009 7.00537C38.6353 6.66357 38.9307 6.3999 39.2871 6.21436C39.6436 6.02393 40.0635 5.92871 40.5469 5.92871C40.6641 5.92871 40.7715 5.93848 40.8691 5.95801C40.9668 5.97266 41.0474 5.99219 41.1108 6.0166ZM45.3442 14.1465C44.8462 14.1465 44.3848 14.0513 43.96 13.8608C43.5352 13.6655 43.1641 13.3945 42.8467 13.0479C42.5293 12.6963 42.2803 12.2812 42.0996 11.8027C41.9238 11.3242 41.8359 10.7993 41.8359 10.228V9.90576C41.8359 9.31494 41.9238 8.77783 42.0996 8.29443C42.2803 7.80615 42.5244 7.38623 42.832 7.03467C43.1396 6.67822 43.4937 6.40479 43.894 6.21436C44.2993 6.02393 44.7314 5.92871 45.1904 5.92871C45.6543 5.92871 46.0742 6.01416 46.4502 6.18506C46.8262 6.35596 47.1484 6.59521 47.417 6.90283C47.6855 7.21045 47.8906 7.57666 48.0322 8.00146C48.1738 8.42627 48.2446 8.89502 48.2446 9.40771V9.89844H42.2021V9.36377H47.666V9.26855C47.6611 8.77051 47.5586 8.30908 47.3584 7.88428C47.1631 7.45947 46.8823 7.11768 46.5161 6.85889C46.1499 6.59521 45.708 6.46338 45.1904 6.46338C44.7754 6.46338 44.397 6.55127 44.0552 6.72705C43.7183 6.90283 43.4277 7.14697 43.1836 7.45947C42.9395 7.76709 42.7515 8.13086 42.6196 8.55078C42.4878 8.96582 42.4219 9.41748 42.4219 9.90576V10.228C42.4219 10.6968 42.4951 11.1362 42.6416 11.5464C42.7881 11.9565 42.9932 12.3179 43.2568 12.6304C43.5205 12.938 43.8306 13.1797 44.187 13.3555C44.5435 13.5312 44.9341 13.6191 45.3589 13.6191C45.8179 13.6191 46.2378 13.5386 46.6187 13.3774C46.9995 13.2163 47.3462 12.9331 47.6587 12.5278L48.0396 12.8135C47.8638 13.0674 47.6514 13.2944 47.4023 13.4946C47.1533 13.6948 46.8579 13.8535 46.5161 13.9707C46.1792 14.0879 45.7886 14.1465 45.3442 14.1465ZM55.3052 12.4619V2.75H55.8838V14H55.3271L55.3052 12.4619ZM49.6948 10.1108V9.95703C49.6948 9.33691 49.7632 8.78027 49.8999 8.28711C50.0366 7.78906 50.2344 7.3667 50.4932 7.02002C50.752 6.66846 51.0669 6.3999 51.438 6.21436C51.814 6.02393 52.2388 5.92871 52.7124 5.92871C53.1567 5.92871 53.5522 5.99951 53.8989 6.14111C54.2456 6.27783 54.5459 6.47559 54.7998 6.73438C55.0537 6.98828 55.2612 7.28857 55.4224 7.63525C55.5884 7.97705 55.7104 8.35547 55.7886 8.77051V11.5024C55.73 11.8687 55.6201 12.2129 55.459 12.5352C55.3027 12.8525 55.0952 13.1333 54.8364 13.3774C54.5825 13.6167 54.2773 13.8047 53.9209 13.9414C53.5645 14.0781 53.1567 14.1465 52.6978 14.1465C52.229 14.1465 51.8091 14.0488 51.438 13.8535C51.0669 13.6582 50.752 13.3823 50.4932 13.0259C50.2344 12.6694 50.0366 12.2446 49.8999 11.7515C49.7632 11.2583 49.6948 10.7114 49.6948 10.1108ZM50.2881 9.95703V10.1108C50.2881 10.6138 50.3369 11.0776 50.4346 11.5024C50.5371 11.9272 50.6885 12.2959 50.8887 12.6084C51.0938 12.9209 51.3501 13.165 51.6577 13.3408C51.9702 13.5166 52.3364 13.6045 52.7563 13.6045C53.2935 13.6045 53.7476 13.5068 54.1187 13.3115C54.4897 13.1162 54.7852 12.8574 55.0049 12.5352C55.2295 12.2129 55.3857 11.8564 55.4736 11.4658V8.88037C55.4199 8.63135 55.3345 8.36768 55.2173 8.08936C55.105 7.80615 54.9463 7.54248 54.7412 7.29834C54.541 7.0542 54.2798 6.85645 53.9575 6.70508C53.6353 6.54883 53.2397 6.4707 52.771 6.4707C52.3462 6.4707 51.9775 6.55859 51.665 6.73438C51.3574 6.91016 51.1011 7.1543 50.896 7.4668C50.6909 7.7793 50.5371 8.14795 50.4346 8.57275C50.3369 8.99756 50.2881 9.45898 50.2881 9.95703ZM61.9189 2.75H62.5049V12.4619L62.4829 14H61.9189V2.75ZM68.1152 9.95703V10.1108C68.1152 10.7114 68.0469 11.2583 67.9102 11.7515C67.7783 12.2446 67.583 12.6694 67.3242 13.0259C67.0703 13.3823 66.7578 13.6582 66.3867 13.8535C66.0156 14.0488 65.5933 14.1465 65.1196 14.1465C64.6655 14.1465 64.2578 14.0781 63.8965 13.9414C63.54 13.8047 63.2324 13.6167 62.9736 13.3774C62.7148 13.1333 62.5049 12.8525 62.3438 12.5352C62.1875 12.2129 62.0776 11.8687 62.0142 11.5024V8.77051C62.0972 8.35547 62.2217 7.97705 62.3877 7.63525C62.5537 7.28857 62.7637 6.98828 63.0176 6.73438C63.2715 6.47559 63.5718 6.27783 63.9185 6.14111C64.27 5.99951 64.6655 5.92871 65.105 5.92871C65.5835 5.92871 66.0083 6.02393 66.3794 6.21436C66.7554 6.3999 67.0703 6.66846 67.3242 7.02002C67.583 7.3667 67.7783 7.78906 67.9102 8.28711C68.0469 8.78027 68.1152 9.33691 68.1152 9.95703ZM67.522 10.1108V9.95703C67.522 9.45898 67.4731 8.99756 67.3755 8.57275C67.2778 8.14795 67.1265 7.7793 66.9214 7.4668C66.7212 7.1543 66.4648 6.91016 66.1523 6.73438C65.8398 6.55859 65.4712 6.4707 65.0464 6.4707C64.5776 6.4707 64.1821 6.54883 63.8599 6.70508C63.5425 6.85645 63.2812 7.0542 63.0762 7.29834C62.876 7.54248 62.7173 7.80615 62.6001 8.08936C62.4878 8.36768 62.4048 8.63135 62.3511 8.88037V11.4658C62.439 11.8516 62.5928 12.208 62.8125 12.5352C63.0371 12.8574 63.335 13.1162 63.7061 13.3115C64.082 13.5068 64.5337 13.6045 65.061 13.6045C65.481 13.6045 65.8447 13.5166 66.1523 13.3408C66.4648 13.165 66.7212 12.9209 66.9214 12.6084C67.1216 12.2959 67.2705 11.9272 67.3682 11.5024C67.4707 11.0776 67.522 10.6138 67.522 10.1108ZM72.5317 13.2236L75.1685 6.0752H75.8057L72.3486 15.2964C72.2852 15.4722 72.2046 15.6675 72.1069 15.8823C72.0093 16.1021 71.8823 16.312 71.7261 16.5122C71.5698 16.7124 71.3672 16.876 71.1182 17.0029C70.874 17.1348 70.5713 17.2007 70.21 17.2007C70.127 17.2007 70.0171 17.1909 69.8804 17.1714C69.7485 17.1567 69.6509 17.1372 69.5874 17.1128L69.5801 16.6001C69.6484 16.6147 69.7388 16.627 69.8511 16.6367C69.9634 16.6514 70.0415 16.6587 70.0854 16.6587C70.4077 16.6587 70.6763 16.5952 70.8911 16.4683C71.1108 16.3462 71.2939 16.1704 71.4404 15.9409C71.5869 15.7163 71.7163 15.4502 71.8286 15.1426L72.5317 13.2236ZM69.8145 6.0752L72.627 13.2749L72.7954 13.8755L72.3486 14.1538L69.1772 6.0752H69.8145Z" fill="black"/>
<g clip-path="url(#clip0_74_742)">
<path d="M1.25 20H18.75C19.0815 20 19.3995 20.1317 19.6339 20.3661C19.8683 20.6005 20 20.9185 20 21.25V38.75C20 39.0815 19.8683 39.3995 19.6339 39.6339C19.3995 39.8683 19.0815 40 18.75 40H1.25C0.918479 40 0.600537 39.8683 0.366117 39.6339C0.131696 39.3995 0 39.0815 0 38.75V21.25C0 20.9185 0.131696 20.6005 0.366117 20.3661C0.600537 20.1317 0.918479 20 1.25 20V20Z" fill="#05A081"/>
<path d="M8.125 33.125H10.5394V30.78H11.2688C11.5252 30.78 11.7791 30.7295 12.0159 30.6314C12.2528 30.5333 12.4681 30.3894 12.6494 30.2081C12.8307 30.0268 12.9745 29.8116 13.0726 29.5747C13.1707 29.3378 13.2212 29.0839 13.2212 28.8275C13.2212 28.5711 13.1707 28.3172 13.0726 28.0803C12.9745 27.8434 12.8307 27.6282 12.6494 27.4469C12.4681 27.2656 12.2528 27.1217 12.0159 27.0236C11.7791 26.9255 11.5252 26.875 11.2688 26.875H8.125V33.125ZM11.7894 34.375H6.875V25.625H11.2688C12.073 25.6248 12.8479 25.9273 13.4393 26.4722C14.0308 27.0172 14.3956 27.7648 14.4612 28.5663C14.5268 29.3679 14.2884 30.1648 13.7934 30.7987C13.2983 31.4325 12.583 31.8569 11.7894 31.9875V34.375Z" fill="#FAF9F8"/>
</g>
<path d="M23.913 34V25.805H26.806C27.3487 25.805 27.8253 25.9077 28.236 26.113C28.6467 26.3183 28.9657 26.6117 29.193 26.993C29.4277 27.3743 29.545 27.8217 29.545 28.335C29.545 28.8483 29.4277 29.2957 29.193 29.677C28.9657 30.051 28.6467 30.3443 28.236 30.557C27.8327 30.7623 27.356 30.865 26.806 30.865H24.991V34H23.913ZM24.991 29.875H26.839C27.169 29.875 27.455 29.8127 27.697 29.688C27.939 29.5633 28.126 29.3837 28.258 29.149C28.39 28.9143 28.456 28.643 28.456 28.335C28.456 28.0197 28.39 27.7483 28.258 27.521C28.126 27.2863 27.939 27.1067 27.697 26.982C27.455 26.8573 27.169 26.795 26.839 26.795H24.991V29.875ZM33.395 34.132C32.823 34.132 32.3133 33.9963 31.866 33.725C31.4187 33.4537 31.0667 33.0833 30.81 32.614C30.5533 32.1373 30.425 31.6057 30.425 31.019C30.425 30.425 30.5497 29.897 30.799 29.435C31.0557 28.973 31.4003 28.61 31.833 28.346C32.273 28.0747 32.7643 27.939 33.307 27.939C33.747 27.939 34.1357 28.0197 34.473 28.181C34.8177 28.335 35.1073 28.5477 35.342 28.819C35.584 29.083 35.7673 29.3873 35.892 29.732C36.024 30.0693 36.09 30.4213 36.09 30.788C36.09 30.8687 36.0827 30.9603 36.068 31.063C36.0607 31.1583 36.0497 31.25 36.035 31.338H31.173V30.458H35.441L34.957 30.854C35.023 30.4727 34.9863 30.1317 34.847 29.831C34.7077 29.5303 34.5023 29.292 34.231 29.116C33.9597 28.94 33.6517 28.852 33.307 28.852C32.9623 28.852 32.647 28.94 32.361 29.116C32.075 29.292 31.8513 29.545 31.69 29.875C31.536 30.1977 31.4737 30.5827 31.503 31.03C31.4737 31.4627 31.5397 31.844 31.701 32.174C31.8697 32.4967 32.1043 32.7497 32.405 32.933C32.713 33.109 33.0467 33.197 33.406 33.197C33.802 33.197 34.1357 33.1053 34.407 32.922C34.6783 32.7387 34.8983 32.504 35.067 32.218L35.925 32.658C35.8077 32.9293 35.6243 33.1787 35.375 33.406C35.133 33.626 34.8433 33.802 34.506 33.934C34.176 34.066 33.8057 34.132 33.395 34.132ZM36.6454 34L38.7244 31.03L36.6564 28.071H37.8884L39.6594 30.645H39.0324L40.7814 28.071H42.0244L39.9564 31.03L42.0134 34H40.7814L39.0324 31.426H39.6484L37.8994 34H36.6454ZM45.4477 34.132C44.8757 34.132 44.3661 33.9963 43.9187 33.725C43.4714 33.4537 43.1194 33.0833 42.8627 32.614C42.6061 32.1373 42.4777 31.6057 42.4777 31.019C42.4777 30.425 42.6024 29.897 42.8517 29.435C43.1084 28.973 43.4531 28.61 43.8857 28.346C44.3257 28.0747 44.8171 27.939 45.3597 27.939C45.7997 27.939 46.1884 28.0197 46.5257 28.181C46.8704 28.335 47.1601 28.5477 47.3947 28.819C47.6367 29.083 47.8201 29.3873 47.9447 29.732C48.0767 30.0693 48.1427 30.4213 48.1427 30.788C48.1427 30.8687 48.1354 30.9603 48.1207 31.063C48.1134 31.1583 48.1024 31.25 48.0877 31.338H43.2257V30.458H47.4937L47.0097 30.854C47.0757 30.4727 47.0391 30.1317 46.8997 29.831C46.7604 29.5303 46.5551 29.292 46.2837 29.116C46.0124 28.94 45.7044 28.852 45.3597 28.852C45.0151 28.852 44.6997 28.94 44.4137 29.116C44.1277 29.292 43.9041 29.545 43.7427 29.875C43.5887 30.1977 43.5264 30.5827 43.5557 31.03C43.5264 31.4627 43.5924 31.844 43.7537 32.174C43.9224 32.4967 44.1571 32.7497 44.4577 32.933C44.7657 33.109 45.0994 33.197 45.4587 33.197C45.8547 33.197 46.1884 33.1053 46.4597 32.922C46.7311 32.7387 46.9511 32.504 47.1197 32.218L47.9777 32.658C47.8604 32.9293 47.6771 33.1787 47.4277 33.406C47.1857 33.626 46.8961 33.802 46.5587 33.934C46.2287 34.066 45.8584 34.132 45.4477 34.132ZM49.4766 34V25.673H50.4996V34H49.4766ZM54.2099 34.132C53.6159 34.132 53.0989 33.9853 52.6589 33.692C52.2189 33.3987 51.9073 33.0027 51.7239 32.504L52.5379 32.108C52.7066 32.46 52.9376 32.7387 53.2309 32.944C53.5243 33.1493 53.8506 33.252 54.2099 33.252C54.5326 33.252 54.8003 33.175 55.0129 33.021C55.2256 32.867 55.3319 32.6653 55.3319 32.416C55.3319 32.24 55.2806 32.1007 55.1779 31.998C55.0826 31.888 54.9653 31.8037 54.8259 31.745C54.6866 31.679 54.5583 31.6313 54.4409 31.602L53.5499 31.349C53.0146 31.195 52.6223 30.975 52.3729 30.689C52.1309 30.403 52.0099 30.0693 52.0099 29.688C52.0099 29.336 52.0979 29.0317 52.2739 28.775C52.4573 28.511 52.7029 28.3057 53.0109 28.159C53.3263 28.0123 53.6783 27.939 54.0669 27.939C54.5876 27.939 55.0533 28.071 55.4639 28.335C55.8819 28.599 56.1789 28.9693 56.3549 29.446L55.5189 29.831C55.3869 29.523 55.1889 29.281 54.9249 29.105C54.6609 28.9217 54.3639 28.83 54.0339 28.83C53.7333 28.83 53.4949 28.907 53.3189 29.061C53.1429 29.2077 53.0549 29.3947 53.0549 29.622C53.0549 29.7907 53.0989 29.93 53.1869 30.04C53.2749 30.1427 53.3813 30.2233 53.5059 30.282C53.6306 30.3333 53.7516 30.3773 53.8689 30.414L54.8369 30.7C55.3209 30.8393 55.6949 31.0557 55.9589 31.349C56.2303 31.6423 56.3659 31.9943 56.3659 32.405C56.3659 32.735 56.2743 33.032 56.0909 33.296C55.9076 33.56 55.6546 33.7653 55.3319 33.912C55.0093 34.0587 54.6353 34.132 54.2099 34.132Z" fill="black"/>
<defs>
<clipPath id="clip0_74_742">
<rect width="20" height="20" fill="white" transform="translate(0 20)"/>
</clipPath>
</defs>
</svg>
